<?xml version="1.0" encoding="utf-8"?>
<!-- Designed: Dreamer-Paul -->
<svg version="1.1" xmlns="http://www.w3.org/2000/svg" xmlns:xlink="http://www.w3.org/1999/xlink" x="0px" y="0px"
	 width="160" height="90" viewBox="45 33 125 125" enable-background="new 0 0 200 200" xml:space="preserve">
<g id="Redmi">
	<path id="底盘" fill="#333333" d="M125.959,148H74.041
		c-0.551,0-1.119,0.443-1.268,0.994l-3.719,13.694c-0.196,0.721,0.163,1.312,0.803,1.312h60.287c0.64,0,0.999-0.591,0.803-1.312
		l-3.719-13.694C127.077,148.443,126.51,148,125.959,148z"/>
	<path id="下半身" fill="#1A1A1A" d="M102.692,129
		c0.268,0.443,0.433,0.951,0.433,1.5v4.2c0,1.657-1.399,3-3.125,3s-3.125-1.343-3.125-3v-4.2c0-0.549,0.165-1.057,0.433-1.5H95v24
		h10v-24H102.692z"/>
	<g id="上半身">
		<rect id="边框" x="20" y="35.5" width="160" height="95"/>
		<rect id="屏幕" x="21.5" y="37" fill="#1A1A1A" width="157" height="88"/>
		<rect id="保护条" x="20" y="126" fill="#333333" width="160" height="4.5"/>
	</g>

	<linearGradient id="屏幕阴影" gradientUnits="userSpaceOnUse" x1="138.6776" y1="145.9915" x2="61.3224" y2="12.0085" gradientTransform="matrix(1 0 0 1 0 2)">
		<stop  offset="0" style="stop-color:#FFFFFF;stop-opacity:0.15"/>
		<stop  offset="0.5" style="stop-color:#000000;stop-opacity:0"/>
	</linearGradient>
	
	<rect id="屏幕阴影_00000023263946874934059040000004819043276161896856_" x="21.5" y="37" fill="url(#屏幕阴影)" width="157" height="88"/>
</g>
</svg>
