<?xml version="1.0" encoding="utf-8"?>
<!-- Designed: Dreamer-Paul -->
<svg version="1.1" xmlns="http://www.w3.org/2000/svg" xmlns:xlink="http://www.w3.org/1999/xlink" x="0px" y="0px"
	 width="144" height="90" viewBox="6 36 200 112.5" enable-background="new 0 0 200 200" xml:space="preserve">
<g id="Asus">
	<path id="屏幕边框" fill="#1A1A1A" d="M172.5,139h-145c0,0,0-86.831,0-88.099S32.5,49,35,49s128.875,0,130,0
		c1.25,0,7.5,0.634,7.5,1.901S172.5,139,172.5,139z"/>
	<rect id="屏幕" x="34" y="56" fill="#333333" width="132" height="74"/>
	<linearGradient id="屏幕阴影_00000115488801031510025760000013808187765488101555_" gradientUnits="userSpaceOnUse" x1="132.5215" y1="52.6712" x2="67.4785" y2="165.3288" gradientTransform="matrix(1 0 0 -1 0 202)">
		<stop  offset="0" style="stop-color:#FFFFFF;stop-opacity:0.15"/>
		<stop  offset="0.5" style="stop-color:#000000;stop-opacity:0"/>
	</linearGradient>

	<rect id="屏幕阴影" x="34" y="56" fill="url(#屏幕阴影_00000115488801031510025760000013808187765488101555_)" width="132" height="74"/>
	<path id="摄像头" d="M101.5,52.643c0,0.429-0.286,0.857-0.857,0.857h-1.286c-0.429,0-0.857-0.286-0.857-0.857v-1.286
		c0-0.429,0.286-0.857,0.857-0.857h1.286c0.429,0,0.857,0.286,0.857,0.857V52.643z"/>
	<path id="底座B" fill="#4D4D4D" d="M30.264,147h143.732c4.705,0,8.804-3.222,11.004-8H15C15,143.4,21.869,147,30.264,147z"/>
	<rect id="底座A" x="15" y="136" fill="#333333" width="170" height="3"/>
	<!--<g id="小圆圈">
		<circle fill="#00E796" cx="34" cy="137.5" r="0.5"/>
		<circle fill="#00E796" cx="39" cy="137.5" r="0.5"/>
		<circle fill="#00E796" cx="44" cy="137.5" r="0.5"/>
		<circle fill="#00E796" cx="49" cy="137.5" r="0.5"/>
		<circle fill="#00E796" cx="54" cy="137.5" r="0.5"/>
	</g>-->
</g>
</svg>
