<?xml version="1.0" encoding="utf-8"?>
<!-- Designed: Dreamer-Paul -->
<!DOCTYPE svg PUBLIC "-//W3C//DTD SVG 1.1//EN" "http://www.w3.org/Graphics/SVG/1.1/DTD/svg11.dtd">
<svg version="1.1" xmlns="http://www.w3.org/2000/svg" xmlns:xlink="http://www.w3.org/1999/xlink" x="0px" y="0px"
	 width="160" height="100" viewBox="36 36 132 132" enable-background="new 0 0 200 200" xml:space="preserve">
<g id="戴尔">
	<g>
		<g>
			<path fill="#B5B5B6" d="M134.4,160.3c0.6,0.9,0.2,1.7-0.9,1.7h-66c-1.1,0-1.5-0.8-0.9-1.7l7.5-11.6c0.6-0.9,2-1.7,3.1-1.7h46.7
				c1.1,0,2.5,0.8,3.1,1.7L134.4,160.3z"/>
		</g>
		<rect x="90" y="138" fill="#9FA0A0" width="20" height="16"/>
		<path fill="#3E3A39" d="M185,132.5c0,3.1-1.9,5.5-4.8,5.5H20.8c-2.9,0-5.8-2.5-5.8-5.5V43.5c0-3.1,2.9-5.5,5.8-5.5h159.4
			c2.9,0,4.8,2.5,4.8,5.5V132.5z"/>
		<rect x="20" y="43" fill="#4C4948" width="160" height="90"/>
		<linearGradient id="SVGID_2_" gradientUnits="userSpaceOnUse" x1="139.4856" y1="156.391" x2="60.5144" y2="19.609">
			<stop  offset="0" style="stop-color:#FFFFFF;stop-opacity:0.15"/>
			<stop  offset="0.5" style="stop-color:#000000;stop-opacity:0"/>
		</linearGradient>
		<rect x="20" y="43" fill="url(#SVGID_2_)" width="160" height="90"/>
	</g>
</g>
</svg>
