<?xml version="1.0" encoding="UTF-8" standalone="no"?>
<svg
   width="2522.26"
   height="399.99997"
   viewBox="0 0 2522.26 399.99997"
   fill="none"
   version="1.1"
   id="svg4"
   sodipodi:docname="horizontallockup_flat_primary_dml0CVJ.svg"
   inkscape:version="1.3 (0e150ed6c4, 2023-07-21)"
   xmlns:inkscape="http://www.inkscape.org/namespaces/inkscape"
   xmlns:sodipodi="http://sodipodi.sourceforge.net/DTD/sodipodi-0.dtd"
   xmlns="http://www.w3.org/2000/svg"
   xmlns:svg="http://www.w3.org/2000/svg">
  <defs
     id="defs4" />
  <sodipodi:namedview
     id="namedview4"
     pagecolor="#ffffff"
     bordercolor="#000000"
     borderopacity="0.25"
     inkscape:showpageshadow="2"
     inkscape:pageopacity="0.0"
     inkscape:pagecheckerboard="0"
     inkscape:deskcolor="#d1d1d1"
     inkscape:zoom="0.35891574"
     inkscape:cx="1330.3958"
     inkscape:cy="72.4404"
     inkscape:window-width="1728"
     inkscape:window-height="992"
     inkscape:window-x="-8"
     inkscape:window-y="-8"
     inkscape:window-maximized="1"
     inkscape:current-layer="svg4" />
  <path
     d="m 2520.38,377.22997 c -0.22,-1.378 -0.43,-2.74 -0.66,-4.102 -1.39,-8.451 -3.12,-16.803 -5.13,-25.041 -3.53,-14.391 -7.97,-28.437 -13.27,-42.04 -4.48,-11.52 -9.58,-22.727 -15.24,-33.59 -7.28,-13.948 -15.49,-27.338 -24.56,-40.072 -11.12,-15.605 -23.54,-30.225 -37.1,-43.697 -5.69,-5.662 -11.58,-11.126 -17.66,-16.361 -13.17,-11.371 -27.24,-21.725 -42.06,-30.98 0.13,-0.214 0.24,-0.443 0.37,-0.657 6.79,-11.732 13.6,-23.449 20.39,-35.181 6.64,-11.453998 13.28,-22.907998 19.92,-34.360998 4.78,-8.221 9.55,-16.459 14.3,-24.68 1.13,-1.953 2.02,-3.971 2.69,-6.038 1.86,-5.76 1.94,-11.815 0.45,-17.444 -0.38,-1.394 -0.84,-2.756 -1.4,-4.085 -0.56,-1.33 -1.21,-2.626 -1.95,-3.873 -2.54,-4.266 -6.17,-7.9749997 -10.73,-10.6829997 -4.03,-2.395 -8.54,-3.823 -13.16,-4.233 -1.94,-0.164 -3.89,-0.148 -5.83,0.049 -1.6,0.164 -3.19,0.46 -4.77,0.87 -5.62,1.493 -10.84,4.578 -14.9,9.0409997 -1.46,1.608 -2.78,3.381 -3.91,5.333 -4.77,8.221 -9.54,16.459 -14.3,24.68 l -19.92,34.361 c -6.79,11.733 -13.6,23.449 -20.39,35.181998 -0.74,1.279 -1.49,2.559 -2.23,3.856 -1.03,-0.411 -2.05,-0.821 -3.08,-1.215 -37.44,-14.275998 -78.06,-22.085998 -120.52,-22.085998 -1.16,0 -2.31,0 -3.48,0.016 -37.75,0.377 -74.02,6.941 -107.86,18.722998 -3.91,1.362 -7.78,2.806 -11.62,4.316 -0.69,-1.198 -1.4,-2.396 -2.08,-3.594 -6.79,-11.732998 -13.6,-23.448998 -20.39,-35.181998 -6.64,-11.453 -13.28,-22.907 -19.92,-34.361 -4.78,-8.221 -9.55,-16.458 -14.3,-24.679 -1.14,-1.953 -2.45,-3.725 -3.91,-5.333 -4.06,-4.4639997 -9.28,-7.5489997 -14.9,-9.0419997 -1.58,-0.41 -3.17,-0.705 -4.78,-0.869 -1.93,-0.197 -3.88,-0.214 -5.82,-0.05 -4.62,0.394 -9.13,1.822 -13.17,4.234 -4.56,2.707 -8.16,6.4159997 -10.72,10.6819997 -0.74,1.247 -1.4,2.544 -1.95,3.873 -0.56,1.329 -1.04,2.691 -1.4,4.086 -1.49,5.628 -1.41,11.683 0.44,17.443 0.68,2.068 1.56,4.086 2.69,6.039 4.78,8.221 9.55,16.458 14.3,24.679 6.65,11.454 13.29,22.908 19.93,34.360998 6.79,11.733 13.59,23.449 20.38,35.182 0.05,0.098 0.12,0.197 0.17,0.295 -13.7,8.517 -26.73,17.952 -39.03,28.273 -7.37,6.187 -14.47,12.668 -21.27,19.445 -13.55,13.472 -25.96,28.093 -37.1,43.698 -9.08,12.734 -17.3,26.107 -24.56,40.072 -5.66,10.863 -10.76,22.07 -15.24,33.59 -5.3,13.603 -9.74,27.649 -13.27,42.04 -2.01,8.238 -3.72,16.574 -5.13,25.041 -0.23,1.362 -0.44,2.74 -0.65,4.102 -0.76,4.907 -1.4,9.846 -1.94,14.818 h 673.11 c -0.54,-4.972 -1.18,-9.911 -1.93,-14.818 z"
     fill="#34a853"
     id="path1" />
  <path
     d="m 2360.79,298.98697 c 13.47,-8.966 15.43,-29.71 4.37,-46.331 -11.05,-16.622 -30.93,-22.827 -44.39,-13.861 -13.47,8.967 -15.43,29.71 -4.37,46.331 11.05,16.622 30.93,22.828 44.39,13.861 z"
     fill="#202124"
     id="path2" />
  <path
     d="m 2055.6,285.18397 c 11.06,-16.622 9.1,-37.365 -4.37,-46.331 -13.47,-8.967 -33.34,-2.761 -44.4,13.86 -11.05,16.622 -9.09,37.365 4.37,46.331 13.47,8.967 33.35,2.761 44.4,-13.86 z"
     fill="#202124"
     id="path3" />
  <path
     d="m 1516.22,266.00197 c 0,-45.168 32.6,-80.801 73.73,-80.801 41.13,0 71.22,34.629 71.22,80.801 0,46.171 -30.59,81.804 -71.22,81.804 -40.63,0 -73.73,-36.134 -73.73,-81.804 z m -141.44,125.968 h 57.68 v -250.933 h -57.68 z m -9.03,-334.743998 c 0,21.58 17.56,39.145 38.12,39.145 20.56,0 37.62,-17.565 37.62,-39.145 0,-20.075 -17.06,-37.138 -37.62,-37.138 -20.56,0 -38.12,17.063 -38.12,37.138 z m -226.2,208.273998 c 0,-45.168 33.1,-80.299 75.73,-80.299 42.64,0 75.74,35.131 75.74,80.299 0,45.168 -33.61,82.306 -75.74,82.306 -42.13,0 -75.73,-36.636 -75.73,-82.306 z m -58.69,0 c 0,75.28 59.19,134.5 134.42,134.5 75.24,0 134.42,-59.22 134.42,-134.5 0,-75.28 -58.18,-132.493 -134.42,-132.493 -76.23,0 -134.42,57.715 -134.42,132.493 z m -155.98,126.47 h 57.68 v -131.489 c 0,-52.194 27.58,-75.28 73.73,-75.28 8.52,0 15.05,0.502 21.06,2.008 v -50.689 c -6.01,-2.007 -16.55,-3.513 -28.08,-3.513 -78.25,0 -124.39,49.183 -124.39,127.474 z m -231.221,-125.968 c 0,-45.168 32.602,-80.801 73.731,-80.801 41.13,0 71.22,34.629 71.22,80.801 0,46.171 -30.59,81.804 -71.22,81.804 -40.628,0 -73.731,-36.134 -73.731,-81.804 z m -58.682,0 c 0,72.77 58.181,133.998 126.893,133.998 28.59,0 54.67,-11.543 70.22,-30.614 h 2.51 v 22.584 h 57.68 V 0.0129723 H 834.6 V 161.61397 h -2.51 c -15.05,-18.067 -41.13,-28.607 -70.22,-28.607 -69.214,0 -126.893,60.726 -126.893,132.995 z m -252.787,125.968 h 57.679 v -147.047 c 0,-35.13 23.574,-59.722 56.175,-59.722 32.602,0 56.175,24.592 56.175,59.722 v 147.047 h 57.68 v -147.047 c 0,-61.227 -48.652,-111.916 -113.855,-111.916 -65.203,0 -113.854,50.689 -113.854,111.916 z m -264.825,-150.56 62.194,-178.161998 h 3.009 L 244.762,241.40997 Z M 0,391.96997 h 65.203 l 32.601,-93.347 h 166.519 l 32.601,93.347 h 65.203 L 217.176,0.0129723 h -72.225 z m 1584.43,8.03 c 28.59,0 54.67,-11.543 70.22,-30.614 h 2.51 v 22.584 h 57.68 V 0.0129723 h -57.68 V 161.61397 h -2.51 c -15.05,-18.067 -41.13,-28.607 -70.22,-28.607 -69.21,0 -126.89,60.726 -126.89,132.995 0,72.268 58.18,133.998 126.89,133.998 z"
     fill="#202124"
     id="path4" />
</svg>
