<?xml version="1.0" encoding="UTF-8"?>
<svg width="493.3" height="519.3" version="1.1" xmlns="http://www.w3.org/2000/svg" xmlns:cc="http://creativecommons.org/ns#" xmlns:dc="http://purl.org/dc/elements/1.1/" xmlns:rdf="http://www.w3.org/1999/02/22-rdf-syntax-ns#" xmlns:xlink="http://www.w3.org/1999/xlink">
 <title>Gentoo Logo Vector</title>
 <defs>
  <linearGradient id="vlpa">
   <stop style="stop-opacity:.4592" offset="0"/>
   <stop style="stop-color:#9999e6" offset="1"/>
  </linearGradient>
  <radialGradient id="vlpd" cx="240.2" cy="350.8" r="303.3" gradientTransform="matrix(.691 1.012 -.8154 .557 374.4 -116.5)" gradientUnits="userSpaceOnUse">
   <stop style="stop-color:#fff" offset="0"/>
   <stop style="stop-color:#fff" offset=".4866"/>
   <stop style="stop-color:#d9d9f6" offset=".5931"/>
   <stop style="stop-color:#adadeb" offset="1"/>
  </radialGradient>
  <radialGradient id="vlpc" cx="402.9" cy="273.5" r="77.79" gradientTransform="scale(1.095 .9133)" gradientUnits="userSpaceOnUse">
   <stop style="stop-color:#fff" offset="0"/>
   <stop style="stop-color:#fff" offset=".3036"/>
   <stop style="stop-color:#e6e6f9" offset=".6071"/>
   <stop style="stop-color:#9999e6" offset="1"/>
  </radialGradient>
  <linearGradient id="vlph" x1="192.6" x2="234.9" y1="404.7" y2="331.9" gradientTransform="scale(1.083 .9232)" gradientUnits="userSpaceOnUse" xlink:href="#vlpa"/>
  <linearGradient id="vlpg" x1="188.6" x2="450.4" y1="785.1" y2="519.5" gradientTransform="scale(1.348 .7417)" gradientUnits="userSpaceOnUse" xlink:href="#vlpa"/>
  <linearGradient id="vlpf" x1="508.2" x2="271" y1="428.6" y2="659.8" gradientTransform="scale(1.201 .8329)" gradientUnits="userSpaceOnUse">
   <stop style="stop-color:#fff" offset="0"/>
   <stop style="stop-color:#fff;stop-opacity:0" offset="1"/>
  </linearGradient>
  <filter id="vlpi">
   <feGaussianBlur stdDeviation="1.3094535"/>
  </filter>
  <linearGradient id="vlpe" x1="354.2" x2="314.4" y1="83.33" y2="322.3" gradientUnits="userSpaceOnUse">
   <stop style="stop-color:#7b7bdf" offset="0"/>
   <stop style="stop-color:#a6a6e9" offset="1"/>
  </linearGradient>
  <radialGradient id="vlpb" cx="364.3" cy="341" r="35.68" gradientTransform="matrix(1.504 -.05645 .04112 1.095 -156.9 -46.75)" gradientUnits="userSpaceOnUse">
   <stop offset="0"/>
   <stop style="stop-color:#9999e6" offset="1"/>
  </radialGradient>
 </defs>
 <metadata>
  <rdf:RDF>
   <cc:Work rdf:about="">
    <dc:format>image/svg+xml</dc:format>
    <dc:type rdf:resource="http://purl.org/dc/dcmitype/StillImage"/>
    <dc:title>Gentoo Logo Vector</dc:title>
    <dc:creator>
     <cc:Agent>
      <dc:title>Matteo 'Peach' Pescarin</dc:title>
     </cc:Agent>
    </dc:creator>
    <dc:description/>
    <cc:license rdf:resource="http://creativecommons.org/licenses/by-sa/2.5/"/>
    <dc:contributor>
     <cc:Agent>
      <dc:title>Daniel Robbins as creator of the original logo</dc:title>
     </cc:Agent>
    </dc:contributor>
   </cc:Work>
   <cc:License rdf:about="http://creativecommons.org/licenses/by-sa/2.5/">
    <cc:permits rdf:resource="http://creativecommons.org/ns#Reproduction"/>
    <cc:permits rdf:resource="http://creativecommons.org/ns#Distribution"/>
    <cc:requires rdf:resource="http://creativecommons.org/ns#Notice"/>
    <cc:requires rdf:resource="http://creativecommons.org/ns#Attribution"/>
    <cc:permits rdf:resource="http://creativecommons.org/ns#DerivativeWorks"/>
    <cc:requires rdf:resource="http://creativecommons.org/ns#ShareAlike"/>
   </cc:License>
  </rdf:RDF>
 </metadata>
 <g transform="translate(-152 -139)">
  <g transform="translate(-20.81 8.922)">
   <path d="m196.3 489.8s-18.67 23.07-12.08 61.51c6.59 38.44 26.36 57.66 26.36 57.66s27.46 28.01 65.35 30.2c37.89 2.197 76.89-15.38 76.89-15.38s67-30.75 101-51.07c34.05-20.32 81.28-52.17 120.8-87.32 39.54-35.15 62.06-67 62.06-67s18.12-26.91 19.22-44.48c1.098-17.57-6.041-36.8-17.57-57.66-11.53-20.87-48.33-68.65-96.66-105.4-48.33-36.8-107.6-66.45-159.3-70.3-51.62-3.844-88.97 17.02-110.4 31.85-21.42 14.83-61.51 49.98-74.14 87.87-12.69 38.06-7.139 65.9 23.61 91.16 30.75 25.26 72.49 45.03 72.49 45.03l-97.75 93.36z" style="fill-opacity:.3333;fill-rule:evenodd"/>
   <path d="m294.7 165c-40.55 22.33-70.77 56.56-80.79 77.7-20.59 43.39-18.71 64.44 3.844 91.71 17.12 20.7 79.63 53.27 79.63 53.27s-53.82 47.23-74.69 67c-20.87 19.77-37.34 48.33-26.36 92.26 10.98 43.93 45.03 59.31 45.03 59.31s44.48 26.36 110.4-2.197c65.9-28.56 114.8-59.31 114.8-59.31s97.2-66.45 123.6-97.2c26.36-30.75 62.06-60.96 45.58-110.4-16.48-49.43-90.07-115.3-90.07-115.3s-73.33-56.1-126.2-69.85c-57.24-14.89-105.6 2.44-124.8 13.01z" style="fill-rule:evenodd;fill:url(#vlpe);stroke-linecap:round;stroke-linejoin:round;stroke-width:2.485;stroke:#000"/>
   <path d="m339.1 358.5s-20.87 24.71-42.84 43.93c-21.97 19.22-30.45 27.98-53.16 51.18-13.18 13.46-24.44 27.47-27.58 53.73-2.285 19.14 2.289 37.47 15.01 48.23s30.22 20.97 65.18 14.27c40.72-7.807 71.54-24.71 71.54-24.71s92.89-47 142.9-84.89c49.98-37.89 100.6-94.62 100.6-94.62s17.53-11.52-1.565-46.21c-19.54-35.5-76.95-85.97-96.72-100.3-19.77-14.28-82.76-65.52-138.2-63.87s-91.71 28.56-91.71 28.56c-11.53 9.885-51.62 39.27-60.96 64.25-9.405 25.17-4.943 45.58 13.18 58.76 18.12 13.18 75.79 37.34 75.79 37.34z" style="fill-rule:evenodd;fill:url(#vlpd)"/>
   <path d="m370.4 305.8s31.3 26.91 59.86 24.71c28.56-2.197 30.75-19.77 30.75-19.77s6.59-23.07-10.43-41.74c-17.02-18.67-41.74-32.95-62.06-32.4-20.32 0.5492-39.54 20.32-38.99 36.25 0.5492 15.93 20.87 32.95 20.87 32.95z" style="fill-opacity:.75;fill-rule:evenodd;fill:url(#vlpc)"/>
   <path d="m397.3 256.4c-18.12 0.2746-26.37 8.441-24.71 23.07 1.648 14.55 33.75 33.26 48.33 30.75 15.11-2.597 19.07-8.77 18.12-20.87-0.9005-11.55-24.16-33.23-41.74-32.95z" style="fill-opacity:.75;fill-rule:evenodd;fill:url(#vlpb)"/>
   <path d="m207.8 281.1s3.295 17.57 25.81 33.5c22.52 15.93 64.23 31.94 86.14 44.64 4.199 2.434 4.91 6.049-2.972 13.06-7.554 6.719-12.48 10.97-12.48 10.97s-63.09-34.93-79.84-50.68c-27.08-25.46-16.65-51.49-16.65-51.49z" style="fill-opacity:.75;fill-rule:evenodd;fill:url(#vlph)"/>
   <path d="m202.3 543.3s20.59 37.55 69.23 37.66c39.23 0.0847 76.56-11.63 135.1-41.19 82.89-41.85 146.6-92.16 178.4-120.2 31.85-28.01 49.18-50.48 49.18-50.48s-18.38 42.7-44.74 67.96c-26.36 25.26-91.71 82.93-154.9 117.5-63.16 34.6-106.2 58.4-150.3 56.23-41.88-2.054-61.68-26.58-70.47-38.11-8.787-11.53-11.57-29.42-11.57-29.42z" style="fill-opacity:.75;fill-rule:evenodd;fill:url(#vlpg)"/>
   <path d="m315.5 562.8s38.44-8.238 111.5-48.33c73.04-40.09 103.5-66.85 125.4-85.02s54.25-45.06 64.69-57.69c10.43-12.63 7.496-21.39 3.048-23.77-3.423-1.833-13.12 5.869-18.6 11.93s-46.6 44.17-69.66 63.94-87.87 71.39-126.9 93.91c-38.99 22.52-89.52 45.03-89.52 45.03z" style="fill-rule:evenodd;fill:url(#vlpf);filter:url(#vlpi)"/>
   <path transform="translate(172.8 130)" d="m227.8 167.6c-4.822 0-9.519 0.6888-12.28 1.188 10.74 7.478 24.44 12.75 32.62 11.34 3.176-0.5457 5.845-1.242 8.094-2.125-5.276-3.068-14.9-8.321-21.19-9.719-2.25-0.5-4.766-0.6875-7.25-0.6875z" style="color:#000000"/>
  </g>
 </g>
</svg>
