<?xml version="1.0" encoding="UTF-8" standalone="no"?>
<!-- Created with Inkscape (http://www.inkscape.org/) -->

<svg
   xmlns:dc="http://purl.org/dc/elements/1.1/"
   xmlns:cc="http://creativecommons.org/ns#"
   xmlns:rdf="http://www.w3.org/1999/02/22-rdf-syntax-ns#"
   xmlns:svg="http://www.w3.org/2000/svg"
   xmlns="http://www.w3.org/2000/svg"
   xmlns:xlink="http://www.w3.org/1999/xlink"
   xmlns:sodipodi="http://sodipodi.sourceforge.net/DTD/sodipodi-0.dtd"
   xmlns:inkscape="http://www.inkscape.org/namespaces/inkscape"
   width="736.60638"
   height="736.60638"
   id="svg2980"
   version="1.1"
   inkscape:version="0.92.3 (2405546, 2018-03-11)"
   sodipodi:docname="lml-logo_w-o_shadow.svg">
  <defs
     id="defs2982">
    <linearGradient
       inkscape:collect="always"
       id="linearGradient850">
      <stop
         style="stop-color:#24d0fc;stop-opacity:1;"
         offset="0"
         id="stop846" />
      <stop
         style="stop-color:#00ffff;stop-opacity:1"
         offset="1"
         id="stop848" />
    </linearGradient>
    <inkscape:perspective
       sodipodi:type="inkscape:persp3d"
       inkscape:vp_x="0 : 526.18109 : 1"
       inkscape:vp_y="0 : 1000 : 0"
       inkscape:vp_z="744.09448 : 526.18109 : 1"
       inkscape:persp3d-origin="372.04724 : 350.78739 : 1"
       id="perspective2988" />
    <inkscape:perspective
       id="perspective2955"
       inkscape:persp3d-origin="0.5 : 0.33333333 : 1"
       inkscape:vp_z="1 : 0.5 : 1"
       inkscape:vp_y="0 : 1000 : 0"
       inkscape:vp_x="0 : 0.5 : 1"
       sodipodi:type="inkscape:persp3d" />
    <linearGradient
       id="linearGradient3431">
      <stop
         id="stop3433"
         offset="0"
         style="stop-color:#3d3d3d;stop-opacity:1;" />
      <stop
         id="stop3435"
         offset="1"
         style="stop-color:#000000;stop-opacity:0.11400651;" />
    </linearGradient>
    <linearGradient
       id="linearGradient3312">
      <stop
         style="stop-color:#c7f994;stop-opacity:1;"
         offset="0"
         id="stop3314" />
      <stop
         style="stop-color:#87cf3e;stop-opacity:1;"
         offset="1"
         id="stop3316" />
    </linearGradient>
    <linearGradient
       inkscape:collect="always"
       xlink:href="#linearGradient850"
       id="linearGradient840"
       gradientUnits="userSpaceOnUse"
       x1="485.20399"
       y1="414.90285"
       x2="997.14841"
       y2="414.90285"
       gradientTransform="matrix(1.1190428,0,0,1.1190428,-367.91549,-54.329479)" />
    <filter
       inkscape:collect="always"
       style="color-interpolation-filters:sRGB"
       id="filter891"
       x="-0.015479364"
       width="1.0309587"
       y="-0.015722531"
       height="1.0314451">
      <feGaussianBlur
         inkscape:collect="always"
         stdDeviation="3.3019058"
         id="feGaussianBlur893" />
    </filter>
  </defs>
  <sodipodi:namedview
     id="base"
     pagecolor="#ffffff"
     bordercolor="#666666"
     borderopacity="1.0"
     inkscape:pageopacity="0.0"
     inkscape:pageshadow="2"
     inkscape:zoom="0.7"
     inkscape:cx="236.78783"
     inkscape:cy="413.17549"
     inkscape:document-units="px"
     inkscape:current-layer="g1028"
     showgrid="false"
     showborder="true"
     inkscape:showpageshadow="false"
     inkscape:window-width="1920"
     inkscape:window-height="1013"
     inkscape:window-x="0"
     inkscape:window-y="0"
     inkscape:window-maximized="1"
     showguides="true"
     inkscape:guide-bbox="true"
     inkscape:snap-others="true" />
  <metadata
     id="metadata2985">
    <rdf:RDF>
      <cc:Work
         rdf:about="">
        <dc:format>image/svg+xml</dc:format>
        <dc:type
           rdf:resource="http://purl.org/dc/dcmitype/StillImage" />
        <dc:title></dc:title>
      </cc:Work>
    </rdf:RDF>
  </metadata>
  <g
     inkscape:label="Layer 1"
     inkscape:groupmode="layer"
     id="layer1"
     transform="translate(-1.6967481,-89.452603)">
    <g
       id="g842"
       transform="matrix(0.93554013,0,0,0.93554013,23.850152,29.506879)">
      <g
         transform="matrix(1.310524,0,0,1.310524,-234.79702,-79.512657)"
         id="g1028">
        <g
           id="g1028-9-5"
           transform="matrix(1.1592533,0,0,1.1592533,884.09907,-427.51633)"
           style="fill:#362c2c;fill-opacity:1;filter:url(#filter891)">
          <path
             style="color:#000000;display:inline;overflow:visible;visibility:visible;fill:#362c2c;fill-opacity:1;fill-rule:evenodd;stroke:none;stroke-width:2.45164561;marker:none;enable-background:accumulate"
             d="m 26.338622,254.31812 c -31.4460015,-8.9e-4 -58.909316,11.72758 -81.197192,34.41804 h -0.191363 c -18.955675,19.47532 -27.05298,42.7649 -29.746076,69.02748 v 31.94623 257.01463 c 0,30.46359 11.147099,57.17867 32.833278,78.78094 18.535646,18.2958 40.828369,30.15476 65.874462,32.83328 h 70.826294 0.0432 l 231.232445,0.006 c 31.44611,8.9e-4 58.90942,-11.72758 81.19719,-34.41803 h 0.19137 c 18.95567,-19.47532 27.05308,-42.7649 29.74618,-69.02748 V 622.95315 365.93852 c 0,-30.46359 -11.1471,-57.17867 -32.83328,-78.78094 -18.53564,-18.2958 -40.82826,-30.1568 -65.87446,-32.83534 l -70.82629,0.002 z"
             id="path4130-6-9"
             inkscape:connector-curvature="0"
             sodipodi:nodetypes="cccccscccccccccscccc" />
        </g>
        <path
           sodipodi:nodetypes="cccccscccccccccscccc"
           inkscape:connector-curvature="0"
           id="path4130-6"
           d="m 299.41296,127.9509 c -35.18941,-9.9e-4 -65.92203,13.12367 -90.86312,38.51526 h -0.21414 c -21.21222,21.79371 -30.27345,47.85576 -33.28714,77.24471 v 35.74919 287.61039 c 0,34.09005 12.47407,63.98538 36.74184,88.15924 20.74219,20.47378 45.68869,33.74446 73.71635,36.74184 h 79.25765 0.0484 l 258.759,0.006 c 35.18954,9.9e-4 65.92217,-13.12367 90.86314,-38.51525 h 0.21414 c 21.21221,-21.79371 30.27356,-47.85576 33.28725,-77.24471 V 540.46929 252.8589 c 0,-34.09005 -12.47408,-63.98537 -36.74184,-88.15923 -20.74218,-20.47379 -45.68857,-33.74675 -73.71634,-36.74415 l -79.25765,0.002 z"
           style="color:#000000;display:inline;overflow:visible;visibility:visible;fill:url(#linearGradient840);fill-opacity:1;fill-rule:evenodd;stroke:none;stroke-width:2.74349642;marker:none;enable-background:accumulate" />
        <path
           id="path4130-9-1"
           d="m 609.72206,515.46288 -0.20038,-122.21982 c 0,-24.17903 -8.9201,-45.60424 -25.9101,-62.76603 -16.9977,-17.17096 -38.15349,-26.01069 -61.96307,-26.01069 -23.37101,0 -43.82072,8.69062 -60.35647,24.6044 -16.48747,-15.88756 -36.79419,-24.6044 -60.15577,-24.6044 -23.80958,0 -44.96506,8.83973 -61.96326,26.01069 -16.9896,17.16179 -25.9101,38.587 -25.9101,62.76603 V 515.46288 H 368.6985 V 393.24306 c 0,-9.26748 3.02389,-16.51394 9.64074,-23.19815 6.63877,-6.70556 13.66877,-9.74118 22.79703,-9.74118 9.31932,0 16.24395,3.02036 22.89728,9.74118 6.61705,6.68421 9.64094,13.93067 9.64094,23.19815 v 122.21982 h 55.43539 V 393.24306 c 0,-9.26748 3.0241,-16.51394 9.64115,-23.19815 6.65312,-6.72082 13.57775,-9.74118 22.89727,-9.74118 9.12828,0 16.15807,3.03562 22.79684,9.74118 6.61705,6.68421 9.64095,13.93067 9.64095,23.19815 l 0.30113,122.21982"
           style="color:#000000;display:inline;overflow:visible;visibility:visible;fill:#ffffff;fill-opacity:1;fill-rule:evenodd;stroke:none;stroke-width:2.38460493;marker:none;enable-background:accumulate"
           sodipodi:nodetypes="ccssccsccccsssccccssscc"
           inkscape:connector-curvature="0" />
        <path
           inkscape:connector-curvature="0"
           sodipodi:nodetypes="ccccccccc"
           style="color:#000000;display:inline;overflow:visible;visibility:visible;fill:#ffffff;fill-opacity:1;fill-rule:evenodd;stroke:none;stroke-width:2.38460493;marker:none;enable-background:accumulate"
           d="m 377.41841,600.333 -59.1491,-0.18579 c -28.76176,0 -53.32662,-27.99509 -53.32662,-63.97189 V 296.53247 h -52.42265 v 249.98662 c 0,29.63055 10.84253,55.61437 31.93568,76.62592 18.02882,17.7955 39.71094,29.33093 64.07216,31.93623 l 68.93156,-4.7e-4"
           id="path4130" />
        <path
           inkscape:connector-curvature="0"
           style="color:#000000;display:inline;overflow:visible;visibility:visible;opacity:0.3;fill:#00599c;fill-opacity:1;fill-rule:evenodd;stroke:none;stroke-width:2.38460493;marker:none;enable-background:accumulate"
           d="m 545.5668,219.59603 v -54.74777 l -224.95129,-0.006 c -30.58618,-8.6e-4 -57.29896,11.40754 -78.97728,33.47752 h -0.18529 c -18.4373,18.94277 -26.31349,41.59556 -28.9329,67.13999 v 31.07305 h 52.42265 v -21.27026 c 0,-30.46371 28.94458,-56.04246 66.21526,-56.04246 l 214.40859,0.37627 z"
           id="path4132-2"
           sodipodi:nodetypes="ccscccccsccc" />
        <path
           inkscape:connector-curvature="0"
           sodipodi:nodetypes="ccccccccc"
           style="color:#000000;display:inline;overflow:visible;visibility:visible;fill:#ff5555;fill-opacity:1;fill-rule:evenodd;stroke:none;stroke-width:2.38460493;marker:none;enable-background:accumulate"
           d="m 545.56654,219.59603 59.1491,0.18577 c 28.76176,0 53.32662,27.9951 53.32662,63.9719 v 239.64285 h 52.42265 V 273.40994 c 0,-29.63057 -10.84253,-55.61438 -31.93567,-76.62594 -18.02884,-17.7955 -39.71095,-29.33092 -64.07217,-31.93623 l -68.93156,4.9e-4"
           id="path4130-2" />
        <path
           inkscape:connector-curvature="0"
           style="color:#000000;display:inline;overflow:visible;visibility:visible;opacity:0.3;fill:#00599c;fill-opacity:1;fill-rule:evenodd;stroke:none;stroke-width:2.38460493;marker:none;enable-background:accumulate"
           d="m 377.41815,600.33319 v 54.74777 l 224.95128,0.006 c 30.58619,8.7e-4 57.29897,-11.40753 78.97728,-33.47751 h 0.18529 c 18.43731,-18.94278 26.03334,-41.20056 28.65277,-66.74498 v -31.07305 l -52.14251,-0.39501 v 21.27025 c 0,30.46371 -28.94458,56.04246 -66.21526,56.04246 l -214.40859,-0.37626 z"
           id="path4132-2-9"
           sodipodi:nodetypes="ccscccccsccc" />
      </g>
    </g>
  </g>
</svg>
