<?xml version="1.0" encoding="UTF-8"?>
<svg height="320" width="1000" xmlns="http://www.w3.org/2000/svg" xmlns:xlink="http://www.w3.org/1999/xlink">
 <filter id="a" color-interpolation-filters="sRGB">
  <feGaussianBlur stdDeviation=".400625"/>
 </filter>
 <filter id="b" color-interpolation-filters="sRGB">
  <feGaussianBlur stdDeviation=".15992437"/>
 </filter>
 <linearGradient id="c" gradientUnits="userSpaceOnUse" x1="70.49" x2="113.64" y1="496.39" y2="455.88">
  <stop offset="0" stop-color="#3d3d3d"/>
  <stop offset="1" stop-opacity=".114"/>
 </linearGradient>
 <filter id="d" color-interpolation-filters="sRGB">
  <feGaussianBlur stdDeviation="2.7119931"/>
 </filter>
 <linearGradient id="e" gradientUnits="userSpaceOnUse" x1="263.39" x2="323.41" y1="356.97" y2="407.64">
  <stop offset="0" stop-color="#c7f994"/>
  <stop offset="1" stop-color="#87cf3e"/>
 </linearGradient>
 <filter id="f" color-interpolation-filters="sRGB">
  <feGaussianBlur stdDeviation="1.6284922"/>
 </filter>
 <text fill="#fff" font-family="Skia" font-size="19.756" transform="matrix(1.14834 0 0 .87082 -18.77 -2.12)" x="342.64" y="980.05"><tspan x="342.64" y="980.05">freedom for the masses</tspan></text>
 <g transform="matrix(2.45969 0 0 2.45969 -572.83 -810.3)">
  <g filter="url(#d)" opacity=".513" transform="matrix(1.00307 0 0 1.00307 8.36 245.11)">
   <path d="m64.168 23.48h2.208v17.48h-2.208z" fill-rule="evenodd" transform="matrix(2.39797 0 0 2.39797 246.73 83.16)"/>
   <path d="m432.597 181.379h-5.29471v-31.7107c0-1.43877-.51796-2.68572-1.55389-3.72164-1.03591-1.03592-2.28286-1.55148-3.72163-1.55148-1.45797 0-2.70491.51795-3.74083 1.55148-1.03592 1.03592-1.55389 2.28287-1.55389 3.72164v31.7107h-5.27552v-31.7107c0-2.89674 1.01674-5.39063 3.08858-7.46006 2.07184-2.07185 4.56573-3.11017 7.48166-3.11017 2.89674 0 5.39062 1.03832 7.46246 3.11017 2.07184 2.06943 3.10777 4.56332 3.10777 7.46006z" fill-rule="evenodd"/>
   <path d="m457.689 170.806c0 2.91592-1.03592 5.39063-3.08858 7.46247-2.07184 2.06945-4.56573 3.10776-7.48165 3.10776-2.89674 0-5.39063-1.03831-7.46247-3.10776-2.07184-2.07184-3.10776-4.54655-3.10776-7.46247v-31.7083h5.2947v31.7107c0 1.45796.51796 2.68572 1.55388 3.72164 1.03592 1.03832 2.28287 1.55389 3.72165 1.55389 1.45796 0 2.7049-.51797 3.74082-1.55389s1.55388-2.26128 1.55388-3.72164v-31.7107h5.27553z" fill-rule="evenodd"/>
   <path d="m89.624 23.328h2.432l1.984 5.472 1.984-5.472h2.424l-3.2 8.816 3.2 8.816h-2.424l-1.984-5.472-1.984 5.472h-2.432l3.2-8.816z" fill-rule="evenodd" transform="matrix(2.39797 0 0 2.39797 246.73 83.16)"/>
   <path d="m403.374 135.932c-1.41959 0-2.68572-1.09348-2.68572-2.57062v-.63306-7.7886h-.80572v-2.64735l2.6916.0192h.61388c1.41959 0 2.68571 1.07429 2.68571 2.55144v11.069h-2.49975z" fill-rule="evenodd"/>
   <g fill-rule="evenodd" transform="translate(-10 -356)">
    <path d="m558.313 537.379h-6.8294v-59.3544c0-.40286-.13428-1.03592-.42204-1.86082-.55633-1.59225-1.55388-2.80083-3.01185-3.62573-1.17021-.63306-2.5898-.94-4.2396-.94-.0767 0-.21102.0384-.42204.0959-.21102.0768-.34531.11511-.42205.11511-.40285 0-1.03591.24939-1.86082.72898-1.38122.74816-2.3596 1.86082-2.91592 3.31879-.40286.90163-.61388 1.63061-.61388 2.16776v59.3544h-6.82941v-59.3544c0-.0576-.0384-.36449-.1151-.92082-.21102-.84409-.5947-1.66899-1.15102-2.49389-1.24694-1.72654-2.82001-2.74327-4.77675-3.01184h-1.43878-.42204-.40286c-.3453 0-.97837.24939-1.88.72898-2.01429 1.03592-3.14613 2.66654-3.43389 4.89185-.0576.0767-.0959.17265-.0959.30694v59.8532h-7.05961v-59.5463c0-1.38123.30694-2.83919.92082-4.35471.28775-.63306.67143-1.34286 1.15102-2.18694.95919-1.72654 2.43633-3.20368 4.41226-4.41226 1.95674-1.20857 4.02858-1.88001 6.17716-2.01429.53715-.0767 1.3045-.1151 2.28286-.0959.0575-.0192.23021.0192.51796.0959.26857.0575.44123.0959.51796.0959.61388 0 1.78409.34531 3.52981 1.03592.26857.0767.57551.21102.92082.42204 1.18939.69062 2.43633 1.72654 3.74083 3.10777 1.11265-1.17021 2.07184-2.03348 2.91592-2.58981 2.20613-1.45796 5.08369-2.18694 8.59431-2.16776.0767-.0192.24939.0192.51796.0959.28775.0575.46041.0959.53714.0959.61388 0 1.72654.30694 3.31879.94001 3.66409 1.45795 6.11961 3.97103 7.36655 7.57756.61388 1.86083.92081 3.31878.92081 4.35471v59.5463z"/>
    <path d="m128.488 23.656h2.944v17.304h-2.944z" transform="matrix(2.39797 0 0 2.39797 256.73 439.16)"/>
    <path d="m605.812 537.379h-6.82941v-28.1233c0-.13429-.0408-.47959-.1151-1.03592-.55632-2.62817-2.16776-4.31634-4.87266-5.08369-.42204-.13429-1.24935-.21102-2.49389-.21102-.0767 0-.2302.0384-.46041.1151-.24939.0767-.36209.0959-.36209.0959-.34771 0-1.01913.24939-1.97593.72899-1.88.90163-2.97347 2.49388-3.31878 4.77674-.0767.0767-.1175.17265-.1175.30694v28.4303h-7.05721v-41.4944h7.05721c-.0552.63546-.0552 1.17021 0 1.6498 2.37878-1.09346 4.91343-1.6498 7.61834-1.6498.0743 0 .26617.0408.63306.11751.3477.0552.55633.0935.61388.0935 1.45796 0 3.24445.65224 5.31389 1.97592 1.74812 1.03832 3.14853 2.41715 4.18206 4.14608 1.45795 2.28287 2.18694 4.50817 2.18694 6.63757v28.5238h-.002z"/>
    <path d="m626.358 502.925h-6.84859v21.3899c.0767.19183.15347.51795.21102.92081.49878 2.22532 1.84404 3.74323 4.04777 4.56573.47959.13428.74816.21102.8249.21102.0767 0 .0959.0384.0959.0959h.1151c.0767 0 .21103.0384.42205.1151.19184.0767.34771.0959.40286.0959h.36448.3645v7.05961c-2.84159-.13668-5.37144-.86327-7.57757-2.16776-1.66898-.97837-3.05022-2.3596-4.14608-4.16287-1.45557-2.34041-2.18455-4.64246-2.18455-6.84619v-49.0744h7.05721v20.6417h6.84859v7.15553h.002z"/>
    <path d="m567.31 491.568c-1.41959 0-2.7049-1.09347-2.7049-2.57061v-.63307-7.78859h-.78653v-2.64736l4.1245.0192h.61388c1.43877 0 2.7049 1.07429 2.7049 2.55144v11.069h-3.95185z"/>
   </g>
   <path d="m379.125 108.673v62c0 2.91592 1.02191 5.39691 3.09375 7.46875 1.94604 1.94379 4.27802 2.97534 6.96875 3.09375v.0312h.53125 5.375v-5.3125h-5.375c-1.72641 0-2.71408-.49039-3.75-1.46875-1.03591-.95679-1.5625-2.1067-1.5625-3.46875v-62.3438h-5.28125z" fill-rule="evenodd"/>
   <path d="m383.875 187.156c-.75965.00001-1.41616.078-1.96875.28125-.53543.19692-.99895.48081-1.34375.8125-.38142.37107-.65338.77076-.8125 1.21875-.1549.42983-.21879.91327-.21875 1.4375v.0625h-1.4375-.34375v.34375.96875.34375h.34375 1.4375c-.00077 1.78396-.02 3.42776-.0312 4.8125-.0121 1.47936-.00001 2.23848 0 2.34375v.34375h.34375 1.4375.34375v-.34375c0-.10507-.0192-.9224-.0312-2.46875-.006-1.44534.0004-3.01929 0-4.6875h2.71875.375v-.34375-.96875-.34375h-.375-2.71875v-.0312c0-.34201.0366-.64659.125-.90625.0931-.26309.2294-.43596.375-.5625.22298-.19666.4727-.32549.75-.40625.27354-.0796.70222-.15624 1.25-.15625.0415.00001.10061 0 .15625 0v.0625l.46875-.0625h.15625v-.0312h.0625l-.0625-.34375v-.3125h-.0312l-.125-.78125-.0625-.28125h-.28125c-.036.00001-.11011.00001-.21875 0-.10257.00001-.20279.00001-.28125 0zm45.3438 0c-.75964.00001-1.41615.078-1.96875.28125-.53543.19692-.99894.48082-1.34375.8125-.3814.37107-.65336.77076-.8125 1.21875-.15489.42983-.21875.91329-.21875 1.4375v.0625h-1.4375-.34375v.34375.96875.34375h.34375 1.4375c-.00075 1.78395-.02 3.42776-.0312 4.8125-.0121 1.47936-.0312 2.23882-.0312 2.34375v.34375h.375 1.40625.375v-.34375c0-.10506-.0192-.9224-.0312-2.46875-.006-1.44534.00039-3.01929 0-4.6875h2.71875.34375v-.34375-.96875-.34375h-.34375-2.71875v-.0312c0-.342.0366-.64658.125-.90625.0931-.26308.22939-.43596.375-.5625.22299-.19667.44145-.3255.71875-.40625.27357-.0796.70222-.15624 1.25-.15625.0415.00001.10062 0 .15625 0v.0625l.46875-.0625h.1875v-.0312h.0625l-.0625-.34375v-.3125h-.0625l-.125-.78125-.0312-.28125h-.3125c-.036.00001-.11013.00001-.21875 0-.10256.00001-.17155.00001-.25 0zm33.4375 0v.34375l.0312 3.5625c-.55222.0171-1.12037.0248-1.6875.125-.68693.11553-1.29971.29446-1.84375.53125-.9234.38879-1.64963.93809-2.15625 1.65625-.50618.71147-.75 1.55635-.75 2.46875 0 .79263.23231 1.54071.6875 2.1875.45822.65116 1.12106 1.15393 1.96875 1.53125.64414.28622 1.32121.4686 2 .5625.67506.0992 1.56846.15625 2.71875.15625.12036 0 .27363.006.46875 0 .19312 0 .30764-.00001.34375 0h.34375v-.0312-.34375c-.00085-.0969.00097-.24164 0-.34375-.006-.62207-.0209-1.2783-.0312-2.09375-.006-.95366-.00002-2.01024 0-3.1875-.00001-1.48953-.0121-2.9871 0-4.4375.0121-1.45146.0312-2.21959.0312-2.34375v-.34375h-.34375-1.4375-.34375zm93.9375 0 .0312.34375c.0181 1.26027-.00001 2.42361 0 3.4375.006 1.00995.0313 1.83678.0312 2.5 0 1.03135-.0192 2.33821-.0312 3.90625-.003.78131.003 1.37454 0 1.78125-.002.20336.001.35985 0 .46875s-.004.19746 0 .15625l-.0625.375h.40625 1.0625.375.34375v-.34375c0-.0145.00036-.29585 0-.34375-.002-.23086-.0213-.60677-.0312-1.65625-.0121-1.26569.00002-2.74689 0-4.4375 0-.77503-.006-1.71657 0-2.84375.006-1.13242.0192-2.14164.0312-3v-.34375h-.34375-1.4375-.375zm-165.219 3.5625-.34375.0625c-.4264.10159-.95233.29663-1.625.5625-.51337.2029-1.04004.46091-1.5625.71875v-.75-.34375h-.34375-1.40625-.34375v.34375c.012.82511.0252 1.69362.0312 2.625.006.93183 0 1.6697 0 2.1875 0 1.28283.0119 2.19486 0 2.71875-.0121.53077-.0313.8277-.0312.9375v.34375h.34375 1.4375.34375v-.34375c0-.12153-.0131-.59541-.0312-1.5-.012-.90318-.00002-1.68718 0-2.34375-.00001-.42819-.006-.91064 0-1.40625.004-.33505-.001-.42236 0-.5625.80104-.34582 1.5081-.66291 2.125-.875.52759-.17979.85165-.29416 1.15625-.375l.15625-.0312c.0446-.011.14923-.0541.1875-.0625l.34375-.0625-.0625-.34375-.0937-.34375-.1875-.84375-.0937-.3125zm45.3438 0-.34375.0625c-.42637.10159-.95233.29663-1.625.5625-.51336.2029-1.04003.46091-1.5625.71875v-.75-.34375h-.34375-1.40625-.375l.0312.34375c.012.8251.0252 1.69362.0312 2.625.006.93183-.00001 1.6697 0 2.1875 0 1.28284-.0193 2.19489-.0312 2.71875-.0121.53078.00001.82784 0 .9375v.34375h.34375 1.4375.34375v-.34375c0-.12148-.0131-.5954-.0312-1.5-.012-.90317-.0312-1.68717-.0312-2.34375 0-.4282.0252-.91065.0312-1.40625.004-.35365-.001-.45671 0-.59375.78484-.33794 1.51829-.63516 2.125-.84375.52758-.17979.85164-.29416 1.15625-.375l.15625-.0312c.0446-.011.14922-.0541.1875-.0625l.34375-.0625-.0937-.34375-.0625-.3438-.1875-.84375-.0937-.3125zm-39.875.0312c-.63887.00001-1.23418.11534-1.8125.34375-.57867.22253-1.09338.54558-1.53125.96875-.48555.46111-.85714.97276-1.09375 1.5625-.2287.58026-.34375 1.2259-.34375 1.90625 0 .70774.14125 1.39156.40625 2.03125.27193.64084.65803 1.18235 1.15625 1.625.4308.38036.92231.67639 1.46875.875.54635.19251 1.13466.28124 1.75.28125.65046 0 1.25215-.0794 1.78125-.28125.52825-.19906 1.00866-.49638 1.4375-.875.50914-.45284.88968-1.01876 1.15625-1.65625.22108-.51612.30262-1.06909.34375-1.625h.0625v-.375-.34375h-.0625c-.0349-.55996-.0823-1.1064-.28125-1.59375-.24236-.59985-.63418-1.12179-1.125-1.59375-.43164-.4174-.91119-.73119-1.46875-.9375-.55216-.2128-1.17981-.31249-1.84375-.3125zm11.5 0c-.53574.00001-1.13609.13126-1.78125.40625-.41241.17752-.70478.37912-1.03125.5625v-.40625-.34375h-.34375-1.40625-.375v.34375c.0181.98078.0312 1.85179.0312 2.625.006.77541.0312 1.41881.0312 1.875 0 1.40015-.0193 2.39685-.0312 3-.0121.60305-.0313.89166-.0312.96875v.34375h.375 1.40625.375v-.34375c-.00002-.0933-.0131-.54196-.0312-1.46875-.0121-.93118-.0313-1.74409-.0312-2.40625 0-.38895-.006-.88668 0-1.5.005-.51053.0304-.71755.0312-.875.48741-.27439.93632-.50779 1.3125-.65625h.0312c.42443-.17274.7569-.25 1.03125-.25.33981 0 .59308.0686.71875.125.1442.0606.25276.12575.34375.25.0798.10871.15322.25638.1875.4375.0384.20329.0569.42809.0625.65625.006.26242 0 .68185 0 1.25.006.56321-.00001.9734 0 1.25 0 .83566.012 1.54532 0 2.15625-.0121.61429-.0312.94682-.0312 1.03125v.34375h.34375 1.4375.34375v-.34375c-.00002-.0933-.0131-.40014-.0312-1.03125-.012-.62751 0-1.41861 0-2.34375-.00001-.42257-.006-.85057 0-1.3125.006-.47036 0-.92128 0-1.375-.00001-.10439.004-.20131 0-.28125.47423-.25227.94181-.4703 1.3125-.59375.43486-.14289.78356-.21875 1.0625-.21875.50785 0 .82304.11014 1 .28125.164.15508.32686.5324.34375 1.15625.006.27974-.00001.70751 0 1.28125.006.56887 0 .97037 0 1.21875-.00001.63417.012 1.31287 0 2.03125-.003.35961-.0283.64988-.0312.84375-.003.19387-.003.34219 0 .3125l-.0312.375h.375 1.09375.34375.34375v-.34375c-.00001-.0305.002-.26059 0-.34375-.004-.16654-.0192-.25545-.0312-.6875-.012-.64438-.00002-1.43869 0-2.375-.00002-.45058-.006-.88127 0-1.28125.0122-.41251.0312-.90591.0312-1.5-.00002-.83657-.26942-1.54725-.8125-2.0625-.5396-.52504-1.29135-.78124-2.1875-.78125-.46909.00001-1.01544.0974-1.625.3125-.53852.19199-1.12989.50189-1.75.84375-.20304-.28872-.41306-.58764-.75-.78125-.4584-.26746-.98843-.37499-1.625-.375zm33.5625 0c-.60976.00001-1.21094.0907-1.78125.3125-.56792.22342-1.04439.54966-1.4375.96875h-.0312c-.43671.46931-.74653 1.00634-.96875 1.5625-.22366.55982-.34376 1.16976-.34375 1.84375-.00001.69647.13959 1.35574.4375 1.9375.29474.56307.66445 1.03357 1.09375 1.40625.50098.44512 1.12685.78495 1.875 1.03125.7614.24266 1.63176.34374 2.625.34375.37343 0 .71871.0173 1 0 .2731-.0112.40368-.0201.5-.0312l.25-.0312.0625-.28125.21875-1.53125-.4375.0312c-.0532.004-.24228.0145-.53125.0312-.27536.0163-.56793.0312-.90625.0312-.60895 0-1.15019-.0635-1.5625-.15625-.4169-.099-.77723-.25073-1.09375-.4375-.50373-.29698-.86092-.63176-1.09375-1.0625-.17885-.33462-.20235-.74099-.25-1.125h5.75.34375.34375v-.375-.34375h-.0625c-.0325-.59921-.0814-1.15707-.25-1.625-.20223-.56722-.4801-1.0725-.875-1.46875-.35576-.35375-.80137-.60849-1.2813-.78115-.47969-.17254-1.00001-.24999-1.59375-.25zm9.4375 0c-.60976.00001-1.21096.0907-1.78125.3125-.56794.22343-1.04439.54967-1.4375.96875-.43672.46931-.77779 1.00634-1 1.5625-.22366.55982-.31251 1.16976-.3125 1.84375 0 .69647.13958 1.35573.4375 1.9375.29475.56306.66442 1.03356 1.09375 1.40625.50097.44512 1.12686.78495 1.875 1.03125.7614.24266 1.63176.34374 2.625.34375.37343 0 .68749.0173.96875 0 .27311-.0112.40366-.0201.5-.0312l.28125-.0312.0312-.28125.21875-1.53125-.4375.0312c-.0531.004-.24227.0145-.53125.0312-.27534.0163-.56796.0312-.90625.0312-.60895 0-1.11893-.0635-1.53125-.15625-.4169-.099-.77727-.25074-1.09375-.4375-.50374-.29698-.86092-.63176-1.09375-1.0625-.17912-.33513-.23372-.74032-.28125-1.125h5.75.34375.375v-.375-.34375h-.0625c-.0325-.59922-.0814-1.15708-.25-1.625-.20225-.56721-.51133-1.0725-.90625-1.46875-.35572-.35384-.77007-.60859-1.25-.78125-.47969-.17255-1.03129-.24999-1.625-.25zm20.0312 0c-.63888.00001-1.26541.11534-1.84375.34375-.57865.22253-1.09339.54558-1.53125.96875-.48555.46111-.82588.97276-1.0625 1.5625-.2287.58027-.34373 1.22591-.34375 1.90625 0 .70775.11003 1.39157.375 2.03125h.0312c.27195.64085.65807 1.18236 1.15625 1.625.43079.38036.92229.67639 1.46875.875.54634.19251 1.13467.28124 1.75.28125.65047 0 1.22091-.0794 1.75-.28125.52826-.19906 1.00867-.49638 1.4375-.875.50914-.45284.92094-1.01875 1.1875-1.65625.22108-.51612.30263-1.06909.34375-1.625h.0625v-.375-.34375h-.0625c-.0348-.56037-.11347-1.10609-.3125-1.59375-.24237-.59984-.60292-1.12178-1.09375-1.59375-.43164-.4174-.94242-.73119-1.5-.9375-.55216-.2128-1.14857-.31249-1.8125-.3125zm11.4688 0c-.53575.00001-1.10484.13126-1.75.40625-.40608.1748-.7085.38205-1.03125.5625v-.40625-.34375h-.375-1.40625-.34375v.34375c.0181.98078.0312 1.8518.0312 2.625.006.7754-.00001 1.41878 0 1.875 0 1.40016.012 2.39686 0 3-.0121.60305-.0312.89258-.0312.96875v.34375h.34375 1.4375.34375v-.34375c-.00002-.0932-.0131-.54196-.0312-1.46875-.0121-.93117 0-1.74408 0-2.40625 0-.38896-.006-.8867 0-1.5.005-.4922-.00099-.67993 0-.84375.50449-.28593.95684-.5348 1.34375-.6875.42444-.17274.78814-.25 1.0625-.25.33981 0 .59305.0686.71875.125.1442.0606.25273.12573.34375.25.0798.10873.12198.2564.15625.4375.0385.20327.0569.42809.0625.65625.006.26237.0312.68184.0312 1.25.006.56322-.00002.97338 0 1.25-.00001.83567-.0192 1.54535-.0312 2.15625-.0121.61429-.00001.94673 0 1.03125v.34375h.34375 1.4375.34375v-.34375c-.00002-.0934-.0131-.40015-.0312-1.03125-.012-.62751-.00001-1.41861 0-2.34375-.00001-.42259-.006-.85059 0-1.3125.006-.47037-.00002-.9213 0-1.375-.00001-.10441.004-.20135 0-.28125.47276-.25129.91151-.47062 1.28125-.59375.43485-.14289.81479-.21875 1.09375-.21875.50785 0 .82301.11012 1 .28125.164.15509.29562.53241.3125 1.15625.006.27973-.00002.7075 0 1.28125.006.56886.0312.97032.0312 1.21875-.00001.63417-.0192 1.31288-.0312 2.03125-.003.35962.003.64988 0 .84375s-.003.34214 0 .3125l-.0625.375h.40625 1.0625.375.34375v-.34375c-.00001-.0303.002-.26061 0-.34375-.004-.16652-.0192-.25545-.0312-.6875-.012-.64437-.0312-1.43868-.0312-2.375 0-.45061.0252-.88131.0312-1.28125.0122-.41251 0-.90591 0-1.5 0-.83657-.2694-1.54725-.8125-2.0625-.53959-.52504-1.29134-.78124-2.1875-.78125-.46909.00001-.9842.0974-1.59375.3125-.53852.19199-1.12988.50189-1.75.84375-.20304-.28872-.41306-.58764-.75-.78125-.45841-.26746-1.0197-.37499-1.65625-.375zm38.8125 0c-.53575.00001-1.10483.13126-1.75.40625-.40608.1748-.70851.38205-1.03125.5625v-.40625-.34375h-.34375-1.4375-.34375v.34375c.0181.98078.0312 1.85179.0312 2.625.006.77541 0 1.41881 0 1.875 0 1.40016.012 2.39687 0 3-.0121.60305-.0313.8916-.0312.96875v.34375h.34375 1.4375.34375v-.34375c0-.0936-.0131-.54195-.0312-1.46875-.0121-.93118-.00001-1.7441 0-2.40625 0-.38896-.006-.88669 0-1.5.005-.49219-.00099-.67988 0-.84375.5045-.28593.95685-.5348 1.34375-.6875.42442-.17274.78814-.25 1.0625-.25.33981 0 .593.0686.71875.125.14419.0606.2527.12571.34375.25.0798.10872.12196.25638.15625.4375.0385.20326.0882.42809.0937.65625.006.2624-.00003.68184 0 1.25.006.56321-.00001.97339 0 1.25 0 .83567.012 1.54535 0 2.15625-.0121.61429-.0313.94616-.0312 1.03125v.34375h.34375 1.4375.34375v-.34375c-.00002-.0933-.0131-.40014-.0312-1.03125-.012-.6275.00002-1.41861 0-2.34375-.00001-.42258-.006-.85058 0-1.3125.006-.47035.00001-.92127 0-1.375-.00001-.10442.004-.20133 0-.28125.47425-.25227.9418-.4703 1.3125-.59375.43485-.14289.78355-.21875 1.0625-.21875.50785 0 .82304.11014 1 .28125.16399.15509.29564.53242.3125 1.15625.006.27975.0313.70753.0312 1.28125.006.56884-.00004.97026 0 1.21875-.00003.63418-.0192 1.31288-.0312 2.03125-.003.35961.003.64989 0 .84375s-.003.34267 0 .3125l-.0312.375h.375 1.09375.34375.34375v-.34375c0-.0307.002-.26058 0-.34375-.004-.16657-.0192-.25546-.0312-.6875-.012-.64436-.0312-1.43867-.0312-2.375-.00001-.45061.0252-.88133.0312-1.28125.0122-.41248 0-.90589 0-1.5-.00002-.83658-.26944-1.54725-.8125-2.0625-.5396-.52504-1.29137-.78124-2.1875-.78125-.4691.00001-.98419.0974-1.59375.3125-.53849.19198-1.12989.50189-1.75.84375-.20304-.28873-.4131-.58764-.75-.78125-.45842-.26746-1.01972-.37499-1.65625-.375zm15 0c-.60975.00001-1.21093.0907-1.78125.3125-.56792.22342-1.0444.54965-1.4375.96875-.43671.4693-.7778 1.00632-1 1.5625-.22366.55983-.34374 1.16978-.34375 1.84375 0 .69647.17084 1.35574.46875 1.9375.29473.56307.63318 1.03357 1.0625 1.40625.50096.44512 1.12684.78495 1.875 1.03125h.0312c.7614.24266 1.63178.34374 2.625.34375.37343 0 .6875.0173.96875 0 .2731-.0112.40364-.0201.5-.0312l.28125-.0312.0312-.28125.21875-1.53125-.4375.0312c-.0532.004-.24229.0145-.53125.0312-.27536.0163-.56792.0312-.90625.0312-.60896 0-1.11898-.0635-1.53125-.15625-.41688-.099-.77721-.25073-1.09375-.4375-.50373-.29698-.86091-.63175-1.09375-1.0625-.17912-.33513-.23372-.74032-.28125-1.125h5.75.34375.375v-.375-.34375h-.0625c-.0325-.59921-.0814-1.15706-.25-1.625-.20224-.56721-.51135-1.0725-.90625-1.46875-.35572-.35385-.77007-.60859-1.25-.78125-.47968-.17255-1.03126-.24999-1.625-.25zm14.0938 0c-.60977.00001-1.21096.0907-1.78125.3125-.56794.22343-1.04438.54967-1.4375.96875-.43671.46931-.77779 1.00634-1 1.5625-.22366.55983-.34372 1.16978-.34375 1.84375 0 .69648.13964 1.35576.4375 1.9375.29475.56306.66444 1.03357 1.09375 1.40625.50098.44512 1.12686.78495 1.875 1.03125.76139.24266 1.66304.34374 2.65625.34375.37343 0 .68746.0173.96875 0 .2731-.0112.4036-.0201.5-.0312l.25-.0312.0625-.28125.21875-1.53125-.4375.0312c-.0531.004-.24226.0145-.53125.0312-.27536.0163-.56796.0312-.90625.0312-.60895 0-1.15018-.0635-1.5625-.15625-.41689-.099-.77729-.25075-1.09375-.4375-.50373-.29699-.82971-.63178-1.0625-1.0625-.17912-.33512-.2337-.7403-.28125-1.125h5.75.34375.34375v-.375-.34375h-.0625c-.0325-.59922-.0814-1.15708-.25-1.625-.20223-.56723-.48013-1.07251-.875-1.46875-.35571-.35383-.80126-.60858-1.28125-.78125-.47968-.17255-1.00004-.24999-1.59375-.25zm14.4062 0c-.60977.00001-1.21097.0907-1.78125.3125-.56794.22343-1.04439.54967-1.4375.96875-.43672.4693-.7778 1.00632-1 1.5625-.22366.55983-.34373 1.16978-.34375 1.84375 0 .69648.17088 1.35575.46875 1.9375.29475.56306.6332 1.03357 1.0625 1.40625.50098.44512 1.12687.78495 1.875 1.03125.7614.24266 1.66303.34374 2.65625.34375.37343 0 .68752.0173.96875 0 .2731-.0112.40363-.0201.5-.0312l.28125-.0312.0312-.28125.21875-1.53125-.4375.0312c-.0532.004-.24225.0145-.53125.0312-.27536.0163-.56797.0312-.90625.0312-.60896 0-1.11895-.0635-1.53125-.15625-.41691-.099-.77728-.25074-1.09375-.4375-.50374-.29698-.86091-.63175-1.09375-1.0625-.17912-.33513-.23371-.74031-.28125-1.125h5.75.34375.34375.0312l-.0312-.375v-.34375h-.0625c-.0325-.59893-.0502-1.15728-.21875-1.625-.20223-.5672-.5113-1.07249-.90625-1.46875-.35571-.35384-.80128-.60858-1.28125-.78125-.47969-.17255-1.00005-.24999-1.59375-.25zm30.8125 0c-.42984.00001-.91171.096-1.5.28125-.45138.13918-1.05701.42473-1.65625.71875v-.4375-.34375h-.34375-1.4375-.34375v.34375c.0181.88545.0312 1.71556.0312 2.5.006.78643-.00001 1.47756 0 2.0625 0 1.27166.012 2.23175 0 2.875-.0121.64211-.0313.9553-.0312 1.03125v.34375h.34375 1.4375.34375v-.34375c-.00002-.0913-.0131-.52189-.0312-1.4375-.0121-.9144-.00003-1.6984 0-2.34375 0-.49539-.006-1.05431 0-1.65625.005-.45224-.001-.5998 0-.75.48765-.26576.96334-.51206 1.4375-.6875.51901-.19202.94552-.28125 1.25-.28125.5561 0 .8472.14014 1 .3125.16187.18262.2956.55776.3125 1.15625.006.25658.0312.68186.0312 1.25.006.5632.00002.99344 0 1.28125-.00001.19975-.0192.71771-.0312 1.59375-.006.87576.005 1.42688 0 1.5625l-.0312.34375h.375 1.09375.34375.34375v-.34375c-.00001-.0259.001-.27295 0-.34375-.004-.18038-.0183-.3297-.0312-.875-.0121-.76355-.00001-1.36978 0-1.875-.00001-.31595-.006-.74286 0-1.25.0122-.51732-.00001-1.10714 0-1.8125-.00001-.85179-.26787-1.577-.8125-2.09375-.53418-.51975-1.25299-.78124-2.09375-.78125zm17.5938 0c-.60976.00001-1.21096.0907-1.78125.3125-.56793.22343-1.04439.54967-1.4375.96875-.43672.46931-.77778 1.00634-1 1.5625-.22364.55981-.34378 1.16975-.34375 1.84375 0 .69647.17082 1.35573.46875 1.9375.29475.56307.66447 1.03358 1.09375 1.40625.50097.44513 1.12688.78495 1.875 1.03125.76138.24266 1.63175.34374 2.625.34375.37343 0 .68748.0173.96875 0 .27311-.0112.40363-.0201.5-.0312l.28125-.0312.0312-.28125.21875-1.53125-.4375.0312c-.0532.004-.24225.0145-.53125.0312-.27534.0163-.56796.0312-.90625.0312-.60896 0-1.11893-.0635-1.53125-.15625-.4169-.099-.77727-.25074-1.09375-.4375-.50373-.29699-.86095-.63178-1.09375-1.0625-.17912-.33513-.23373-.74032-.28125-1.125h5.75.34375.375v-.375-.34375h-.0625c-.0325-.59922-.0814-1.15709-.25-1.625-.20223-.56723-.51138-1.07251-.90625-1.46875-.35573-.35385-.7701-.60859-1.25-.78125-.47969-.17255-1.03128-.24999-1.625-.25zm-105.156.125c-.2663.0112-.43407.0253-.53125.0312l-.28125.0312-.0312.28125-.15625 1.125-.0625.40625.4375-.0312c.32643-.0168.56123-.02.75-.0312.18368-.0106.42072-.0312.6875-.0312.4225 0 .78858.0207 1.09375.0625.30185.0362.57721.0985.8125.1875.33561.12613.56503.31583.71875.53125.0953.13358.10495.36738.15625.5625-.65848.0599-1.29943.11712-1.84375.21875-.66545.11968-1.2005.27439-1.625.4375-.6662.25479-1.19278.59121-1.59375 1.03125-.40376.44435-.62501 1.01767-.625 1.625 0 .57107.18416 1.08065.53125 1.5.33967.40216.78683.71264 1.3125.9375.39513.17058.85272.28768 1.375.375.51937.0868 1.01663.15624 1.53125.15625.79631 0 1.45361-.0223 1.96875-.0625.50125-.0335.75875-.0546.84375-.0625l.34375-.0312v-.3125c-.00001-.0562-.006-.53547 0-1.40625.005-.7761-.00059-1.84909 0-3.03125v-.375-.34375h-.0625c-.0253-.63608-.0498-1.21543-.21875-1.625-.19484-.4785-.48828-.89242-.875-1.21875-.41609-.347-.92811-.57476-1.53125-.71875-.58953-.14817-1.26503-.21874-2-.21875-.4689.00001-.84119-.0175-1.125 0zm68.75 0c-.94198.00001-1.75539.0521-2.4375.15625-.68133.0992-1.31926.29692-1.90625.5625-.82244.37153-1.49762.88545-2 1.53125-.51013.6557-.74998 1.43039-.75 2.28125 0 .83107.15827 1.56038.53125 2.15625.35917.57387.83146 1.01852 1.40625 1.375.57942.37337 1.2688.64354 2.0625.8125.77123.15854 1.54708.24787 2.28125.25-.0531.34468-.10958.68892-.28125.9375-.2183.32043-.6185.61318-1.28125.84375-.42945.14635-.93016.22768-1.46875.28125-.54775.0599-1.17762.11397-1.875.125h-.375l.0312.375.15625 1.09375.0312.28125h.3125c1.06619 0 1.98279-.0675 2.75-.21875.75855-.14379 1.42024-.33111 1.96875-.59375.69903-.34725 1.23849-.83956 1.625-1.4375.40793-.62036.59373-1.43941.59375-2.4375-.00001-.52048.006-1.09259 0-1.71875-.006-.62411 0-1.24202 0-1.84375-.00001-.88678-.006-1.79941 0-2.78125.01-.77877.0293-1.07058.0312-1.3125.00052-.0633 0-.31589 0-.34375v-.375h-.375c-.12496.00001-.22891 0-.34375 0h-.1875c-.16293.00001-.33106.00001-.5 0zm5.1875 0c-.26632.0112-.43409.0253-.53125.0312l-.28125.0312-.0312.28125-.15625 1.125-.0625.40625.4375-.0312c.32642-.0168.56121-.02.75-.0312.18366-.0106.4207-.0312.6875-.0312.42252 0 .7886.0207 1.09375.0625.30184.0362.5772.0985.8125.1875.33563.12613.5651.31589.71875.53125.0968.1357.13614.36319.1875.5625-.66095.06-1.32898.1168-1.875.21875-.66544.11968-1.20051.27438-1.625.4375-.6662.25479-1.19278.5912-1.59375 1.03125-.40379.44436-.62498.98644-.625 1.59375 0 .57107.18414 1.1119.53125 1.53125.33968.40217.78688.71264 1.3125.9375.39514.17058.85273.28768 1.375.375.51937.0868 1.01665.15624 1.53125.15625.79633 0 1.4536-.0223 1.96875-.0625.50125-.0335.75877-.0546.84375-.0625l.34375-.0312v-.3125c-.00001-.0561-.006-.53546 0-1.40625.005-.77611-.00061-1.8491 0-3.03125v-.375-.34375h-.0625c-.0253-.63608-.0498-1.21543-.21875-1.625-.19485-.47851-.48833-.89243-.875-1.21875-.41608-.347-.92807-.57476-1.53125-.71875-.58952-.14817-1.26505-.21874-2-.21875-.46888.00001-.84123-.0175-1.125 0zm-77.7812.0625c-.83364.00001-1.61968.071-2.40625.25-.7836.17395-1.48095.43459-2.0625.78125-.64564.38223-1.15921.89234-1.5625 1.5-.41021.61202-.62501 1.29621-.625 2.03125 0 .81204.20872 1.58643.65625 2.25.44587.66111 1.06787 1.17104 1.84375 1.5625.56785.28328 1.20486.51144 1.90625.65625.70103.13895 1.45141.18749 2.25.1875.0724 0 .17867-.00001.28125 0 .10863 0 .17051-.00001.21875 0h.34375v-.3125l.0937-.8125h.0312v-.3125l.0312-.34375h-.0312v-.0312h-.3125-.0312l-.3125-.0312v.0312c-.0927.00001-.17279.00001-.25 0-.5749.00001-1.14494-.0444-1.65625-.125-.50499-.0796-.92254-.19979-1.3125-.375h-.0312c-.49479-.21868-.86116-.51417-1.15625-.90625-.27799-.38097-.43751-.84261-.4375-1.4375 0-.47242.15601-.9148.46875-1.34375.30937-.42434.70861-.73514 1.25-.9375h.0312c.42334-.16402.83544-.27502 1.28125-.34375.45094-.0739 1.03123-.12499 1.6875-.125.0423.00001.0767.00001.125 0 .0543.00001.11397.00001.15625 0h.375l-.0312-.375-.0937-1.125v-.3125h-.34375c-.0422.00001-.0839.00001-.15625 0-.0664.00001-.15243.00001-.21875 0zm102.656 0c-.83365.00001-1.61967.071-2.40625.25-.78361.17395-1.48095.43459-2.0625.78125-.64565.38223-1.19047.89234-1.59375 1.5-.41022.61202-.59377 1.2962-.59375 2.03125 0 .81204.20871 1.58642.65625 2.25.44586.66111 1.0679 1.17104 1.84375 1.5625.56786.28328 1.20489.51144 1.90625.65625.70105.13895 1.4514.18749 2.25.1875.0724 0 .17866-.00001.28125 0 .10861 0 .1705-.00001.21875 0h.3125l.0312-.3125.0937-.8125h.0312v-.3125l.0312-.34375h-.0312v-.0312h-.3125-.0312l-.3125-.0312v.0312c-.0952.00001-.2023.00001-.28125 0-.57488.00001-1.11369-.0444-1.625-.125-.50499-.0796-.95376-.19979-1.34375-.375-.49478-.21868-.86116-.51417-1.15625-.90625-.27799-.38096-.4375-.8426-.4375-1.4375 0-.47243.15601-.91481.46875-1.34375.3094-.42436.7086-.73515 1.25-.9375.42331-.16402.86669-.27502 1.3125-.34375.45092-.0739 1.03124-.12499 1.6875-.125.0423.00001.0767.00001.125 0 .0543.00001.11398.00001.15625 0h.34375v-.375l-.0937-1.125v-.3125h-.34375c-.0422.00001-.0838.00001-.15625 0-.0664.00001-.15243.00001-.21875 0zm-165.406 1.5c.60749.00001 1.06494.17036 1.40625.5.24983.23445.35104.61942.46875 1h-3.90625c.16147-.37249.31836-.75885.59375-1 .38792-.34447.83095-.5 1.4375-.5zm9.46875 0c.60747.00001 1.03371.17037 1.375.5.24983.23445.35103.61941.46875 1h-3.90625c.16147-.37249.31837-.75885.59375-1 .38794-.34448.8622-.5 1.46875-.5zm85.3125 0c.60749.00001 1.03371.17037 1.375.5.24984.23445.35103.61942.46875 1h-3.90625c.16148-.37249.31838-.75885.59375-1 .38792-.34447.86221-.5 1.46875-.5zm14.0625 0c.60749.00001 1.06491.17035 1.40625.5.24983.23445.35104.61942.46875 1h-3.90625c.16147-.37249.31836-.75885.59375-1 .38793-.34447.83098-.5 1.4375-.5zm14.4375 0c.6075.00001 1.03365.17034 1.375.5.24983.23445.35104.61942.46875 1h-3.90625c.16147-.37249.31836-.75886.59375-1 .38792-.34447.86223-.5 1.46875-.5zm48.4062 0c.6075.00001 1.03367.17035 1.375.5.24983.23445.35102.61941.46875 1h-3.90625c.16147-.37249.31836-.75885.59375-1 .38791-.34447.86224-.5 1.46875-.5zm-216.656.06255c.31096.00001.62513.0532.90625.15625.28602.098.52036.22746.71875.40625v.0312c.34325.30264.58754.64799.75 1.09375.17275.45881.25.9231.25 1.40625-.00001.46037-.0851.89549-.25 1.3125-.16355.41349-.38115.77414-.6875 1.0625-.21288.20169-.45954.36128-.75.46875-.28386.10697-.59503.15625-.9375.15625-.30992 0-.6038-.0365-.875-.125-.27118-.0935-.48591-.23889-.6875-.40625-.37577-.31232-.6473-.6747-.8125-1.09375-.17009-.43644-.25-.90643-.25-1.4375-.00001-.46034.0841-.91399.25-1.34375.17121-.42913.37753-.73733.65625-1v-.0312c.24367-.23542.52022-.39583.78125-.5.25732-.10266.55549-.15624.9375-.15625zm74.5312 0c.31096.00001.59387.0532.875.15625.28602.098.52035.22746.71875.40625l.0312.0312c.34324.30264.58756.648.75 1.09375.17276.4588.24998.92309.25 1.40625-.00001.46036-.0851.89547-.25 1.3125-.16354.41348-.38116.77413-.6875 1.0625-.21288.20169-.45953.36128-.75.46875-.28385.10697-.59501.15625-.9375.15625-.3099 0-.60378-.0365-.875-.125-.27118-.0934-.51713-.23888-.71875-.40625-.37576-.31231-.61602-.67468-.78125-1.09375-.17008-.43645-.28124-.90643-.28125-1.4375 0-.46035.0841-.91399.25-1.34375.17121-.42912.40879-.73732.6875-1v-.0312c.24367-.23541.48898-.39583.75-.5.25731-.10266.58671-.15624.96875-.15625zm105.062.15625c.008.52423.0312 1.04076.0312 1.53125.005.46414-.001.81204 0 1.15625.00031.10233 0 .25204 0 .34375v.34375c-.00087.59684.005 1.16566 0 1.625-.004.35034-.0299.43787-.0312.59375-.50963-.002-1.01451-.0629-1.46875-.15625-.46346-.0965-.84656-.22506-1.1875-.375-.49524-.21885-.86778-.52081-1.15625-.90625-.27338-.37214-.43753-.79047-.4375-1.34375 0-.53363.15042-.98823.4375-1.40625.28362-.41294.68675-.74398 1.25-.96875.4449-.17636.8631-.28151 1.25-.34375.36423-.0577.82421-.0886 1.3125-.0937zm-113.75.21875c0 .13537-.00001.27227 0 .40625v.40625c0 .11172-.00001.24141 0 .34375v.34375c-.00052 1.37798-.0258 2.53983-.0312 3.25-.004.54709.001.6847 0 .875-.50606-.007-1.00596-.0364-1.46875-.125-.49333-.10081-.9266-.24608-1.3125-.4375-.43153-.2122-.77454-.50311-1.0625-.875-.27173-.35092-.40624-.77115-.40625-1.28125 0-.58164.14807-1.05502.4375-1.46875.2921-.42248.69754-.73368 1.25-.96875.34882-.14852.76986-.28359 1.28125-.375.40799-.0721.86072-.0787 1.3125-.0937zm49.4375 2.8125c.002.21525 0 .4451 0 .625-.00001.15145 0 .2509 0 .375v.34375.34375c-.001.36665.004.72832 0 .96875v.0312.21875c-.0707.002-.15074-.002-.21875 0-.17249.005-.32228.00001-.4375 0-.38686 0-.74528-.0249-1.09375-.0625-.33755-.0423-.63424-.10021-.90625-.1875-.34495-.10968-.60655-.25844-.78125-.4375-.15825-.16618-.21876-.37656-.21875-.6875 0-.25863.0853-.41672.28125-.59375.23201-.20484.48475-.36591.78125-.46875.41954-.15005.9479-.26229 1.59375-.34375.48035-.0646.73867-.10219 1-.125zm73.9375 0c.002.21525-.00002.44506 0 .625-.00001.15145 0 .2509 0 .375v.34375.34375c-.001.36665.004.7283 0 .96875v.0312.21875c-.0707.002-.15073-.002-.21875 0-.1725.005-.32226.00001-.4375 0-.38686 0-.74532-.0249-1.09375-.0625-.33755-.0423-.63426-.10021-.90625-.1875-.34494-.10968-.60654-.25843-.78125-.4375-.15825-.16618-.21877-.37656-.21875-.6875 0-.25863.0853-.41672.28125-.59375.232-.20483.48477-.36591.78125-.46875.41955-.15005.94791-.26229 1.59375-.34375.48033-.0646.73866-.10219 1-.125z"/>
  </g>
  <path d="m392.989 430.897c-.75965.00001-1.41616.078-1.96875.28125-.53543.19692-.99895.48081-1.34375.8125-.38142.37107-.65338.77076-.8125 1.21875-.1549.42983-.21879.91327-.21875 1.4375v.0625h-1.4375-.34375v.34375.96875.34375h.34375 1.4375c-.00077 1.78396-.02 3.42776-.0312 4.8125-.0121 1.47936-.00001 2.23848 0 2.34375v.34375h.34375 1.4375.34375v-.34375c0-.10507-.0192-.9224-.0312-2.46875-.006-1.44534.0004-3.01929 0-4.6875h2.71875.375v-.34375-.96875-.34375h-.375-2.71875v-.0312c0-.34201.0366-.64659.125-.90625.0931-.26309.2294-.43596.375-.5625.22298-.19666.4727-.32549.75-.40625.27354-.0796.70222-.15624 1.25-.15625.0415.00001.10061 0 .15625 0v.0625l.46875-.0625h.15625v-.0312h.0625l-.0625-.34375v-.3125h-.0312l-.125-.78125-.0625-.28125h-.28125c-.036.00001-.11011.00001-.21875 0-.10257.00001-.20279.00001-.28125 0zm45.3438 0c-.75964.00001-1.41615.078-1.96875.28125-.53543.19692-.99894.48082-1.34375.8125-.3814.37107-.65336.77076-.8125 1.21875-.15489.42983-.21875.91329-.21875 1.4375v.0625h-1.4375-.34375v.34375.96875.34375h.34375 1.4375c-.00075 1.78395-.02 3.42776-.0312 4.8125-.0121 1.47936-.0312 2.23882-.0312 2.34375v.34375h.375 1.40625.375v-.34375c0-.10506-.0192-.9224-.0312-2.46875-.006-1.44534.00039-3.01929 0-4.6875h2.71875.34375v-.34375-.96875-.34375h-.34375-2.71875v-.0312c0-.342.0366-.64658.125-.90625.0931-.26308.22939-.43596.375-.5625.22299-.19667.44145-.3255.71875-.40625.27357-.0797.70222-.15624 1.25-.15625.0415.00001.10062 0 .15625 0v.0625l.46875-.0625h.1875v-.0312h.0625l-.0625-.34375v-.3125h-.0625l-.125-.78125-.0312-.28125h-.3125c-.036.00001-.11013.00001-.21875 0-.10256.00001-.17155.00001-.25 0zm33.4375 0v.34375l.0312 3.5625c-.55222.017-1.12037.0249-1.6875.125-.68693.11553-1.29971.29446-1.84375.53125-.9234.38879-1.64963.93809-2.15625 1.65625-.50618.71147-.75 1.55635-.75 2.46875 0 .79263.23231 1.54071.6875 2.1875.45822.65116 1.12106 1.15393 1.96875 1.53125.64414.28622 1.32121.4686 2 .5625.67506.0992 1.56846.15625 2.71875.15625.12036 0 .27363.006.46875 0 .19312 0 .30764-.00001.34375 0h.34375v-.0312-.34375c-.00085-.0969.00097-.24164 0-.34375-.006-.62207-.0209-1.2783-.0312-2.09375-.006-.95366-.00002-2.01024 0-3.1875-.00001-1.48953-.0121-2.9871 0-4.4375.0121-1.45146.0312-2.21959.0312-2.34375v-.34375h-.34375-1.4375-.34375zm93.9375 0 .0312.34375c.0181 1.26027-.00001 2.42361 0 3.4375.006 1.00995.0313 1.83678.0312 2.5 0 1.03135-.0192 2.33821-.0312 3.90625-.003.78131.003 1.37454 0 1.78125-.002.20336.001.35985 0 .46875s-.004.19746 0 .15625l-.0625.375h.40625 1.0625.375.34375v-.34375c0-.0145.00036-.29585 0-.34375-.002-.23086-.0213-.60677-.0312-1.65625-.0121-1.26569.00002-2.74689 0-4.4375 0-.77503-.006-1.71657 0-2.84375.006-1.13242.0192-2.14164.0312-3v-.34375h-.34375-1.4375-.375zm-165.219 3.5625-.34375.0625c-.4264.10159-.95233.29663-1.625.5625-.51337.2029-1.04004.46091-1.5625.71875v-.75-.34375h-.34375-1.40625-.34375v.34375c.012.82511.0252 1.69362.0312 2.625.006.93183 0 1.6697 0 2.1875 0 1.28283.0119 2.19486 0 2.71875-.0121.53077-.0313.8277-.0312.9375v.34375h.34375 1.4375.34375v-.34375c0-.12153-.0131-.59541-.0312-1.5-.012-.90318-.00002-1.68718 0-2.34375-.00001-.42819-.006-.91064 0-1.40625.004-.33505-.001-.42236 0-.5625.80104-.34582 1.5081-.66291 2.125-.875.52759-.17979.85165-.29416 1.15625-.375l.15625-.0312c.0446-.011.14923-.0541.1875-.0625l.34375-.0625-.0625-.34375-.0937-.34375-.1875-.84375-.0937-.3125zm45.3438 0-.34375.0625c-.42637.10159-.95233.29663-1.625.5625-.51336.2029-1.04003.46091-1.5625.71875v-.75-.34375h-.34375-1.40625-.375l.0312.34375c.0121.8251.0252 1.69362.0312 2.625.006.93183-.00001 1.6697 0 2.1875 0 1.28284-.0193 2.19489-.0312 2.71875-.0121.53078.00001.82784 0 .9375v.34375h.34375 1.4375.34375v-.34375c0-.12148-.0131-.5954-.0312-1.5-.012-.90317-.0312-1.68717-.0312-2.34375 0-.4282.0252-.91065.0312-1.40625.004-.35365-.001-.45671 0-.59375.78484-.33794 1.51829-.63516 2.125-.84375.52758-.17979.85164-.29416 1.15625-.375l.15625-.0312c.0446-.011.14922-.0541.1875-.0625l.34375-.0625-.0937-.34375-.0625-.34375-.1875-.84375-.0937-.3125zm-39.875.0312c-.63887.00001-1.23418.11534-1.8125.34375-.57867.22253-1.09338.54558-1.53125.96875-.48555.46111-.85714.97276-1.09375 1.5625-.2287.58026-.34375 1.2259-.34375 1.90625 0 .70774.14125 1.39156.40625 2.03125.27193.64084.65803 1.18235 1.15625 1.625.4308.38036.92231.67639 1.46875.875.54635.19251 1.13466.28124 1.75.28125.65046 0 1.25215-.0794 1.78125-.28125.52825-.19906 1.00866-.49638 1.4375-.875.50914-.45284.88968-1.01876 1.15625-1.65625.22108-.51612.30262-1.06909.34375-1.625h.0625v-.375-.34375h-.0625c-.0349-.55996-.0823-1.1064-.28125-1.59375-.24236-.59985-.63418-1.12179-1.125-1.59375-.43164-.4174-.91119-.73119-1.46875-.9375-.55216-.2128-1.17981-.31249-1.84375-.3125zm11.5 0c-.53574.00001-1.13609.13126-1.78125.40625-.41241.17752-.70478.37912-1.03125.5625v-.40625-.34375h-.34375-1.40625-.375v.34375c.0181.98078.0312 1.85179.0312 2.625.006.77541.0312 1.41881.0312 1.875 0 1.40015-.0193 2.39685-.0312 3-.0121.60305-.0313.89166-.0312.96875v.34375h.375 1.40625.375v-.34375c-.00002-.0933-.0131-.54196-.0312-1.46875-.0121-.93118-.0313-1.74409-.0312-2.40625 0-.38895-.006-.88668 0-1.5.005-.51053.0304-.71755.0312-.875.48741-.27439.93632-.50779 1.3125-.65625h.0312c.42443-.17274.7569-.25 1.03125-.25.33981 0 .59308.0686.71875.125.1442.0606.25276.12575.34375.25.0798.10871.15322.25638.1875.4375.0384.20329.0569.42809.0625.65625.006.26242 0 .68185 0 1.25.006.56321-.00001.9734 0 1.25 0 .83566.012 1.54532 0 2.15625-.0121.61429-.0312.94682-.0312 1.03125v.34375h.34375 1.4375.34375v-.34375c-.00002-.0933-.0131-.40014-.0312-1.03125-.012-.62751 0-1.41861 0-2.34375-.00001-.42257-.006-.85057 0-1.3125.006-.47036 0-.92128 0-1.375-.00001-.10439.004-.20131 0-.28125.47423-.25227.94181-.4703 1.3125-.59375.43486-.14289.78356-.21875 1.0625-.21875.50785 0 .82304.11014 1 .28125.164.15508.32686.5324.34375 1.15625.006.27974-.00001.70751 0 1.28125.006.56887 0 .97037 0 1.21875-.00001.63417.012 1.31287 0 2.03125-.003.35961-.0282.64988-.0312.84375s-.003.34219 0 .3125l-.0312.375h.375 1.09375.34375.34375v-.34375c-.00001-.0305.002-.26059 0-.34375-.004-.16654-.0192-.25545-.0312-.6875-.012-.64438-.00002-1.43869 0-2.375-.00002-.45058-.006-.88127 0-1.28125.0122-.41251.0312-.90591.0312-1.5-.00002-.83657-.26942-1.54725-.8125-2.0625-.5396-.52504-1.29135-.78124-2.1875-.78125-.46909.00001-1.01544.0974-1.625.3125-.53852.19199-1.12989.50189-1.75.84375-.20304-.28872-.41306-.58764-.75-.78125-.4584-.26746-.98843-.37499-1.625-.375zm33.5625 0c-.60976.00001-1.21094.0907-1.78125.3125-.56792.22342-1.04439.54966-1.4375.96875h-.0312c-.43671.46931-.74653 1.00634-.96875 1.5625-.22366.55982-.34376 1.16976-.34375 1.84375-.00001.69647.13959 1.35574.4375 1.9375.29474.56307.66445 1.03357 1.09375 1.40625.50098.44512 1.12685.78495 1.875 1.03125.7614.24266 1.63176.34374 2.625.34375.37343 0 .71871.0173 1 0 .2731-.0112.40368-.0201.5-.0312l.25-.0312.0625-.28125.21875-1.53125-.4375.0312c-.0532.004-.24228.0145-.53125.0312-.27536.0163-.56793.0312-.90625.0312-.60895 0-1.15019-.0635-1.5625-.15625-.4169-.099-.77723-.25073-1.09375-.4375-.50373-.29698-.86092-.63176-1.09375-1.0625-.17885-.33462-.20235-.74099-.25-1.125h5.75.34375.34375v-.375-.34375h-.0625c-.0325-.59921-.0814-1.15707-.25-1.625-.20223-.56722-.4801-1.0725-.875-1.46875-.35571-.35385-.80132-.60859-1.28125-.78125-.47969-.17254-1.00001-.24999-1.59375-.25zm9.4375 0c-.60976.00001-1.21096.0907-1.78125.3125-.56794.22343-1.04439.54967-1.4375.96875-.43672.46931-.77779 1.00634-1 1.5625-.22366.55982-.31251 1.16976-.3125 1.84375 0 .69647.13958 1.35573.4375 1.9375.29475.56306.66442 1.03356 1.09375 1.40625.50097.44512 1.12686.78495 1.875 1.03125.7614.24266 1.63176.34374 2.625.34375.37343 0 .68749.0173.96875 0 .27311-.0112.40366-.0201.5-.0312l.28125-.0312.0312-.28125.21875-1.53125-.4375.0312c-.0531.004-.24227.0145-.53125.0312-.27534.0163-.56796.0312-.90625.0312-.60895 0-1.11893-.0635-1.53125-.15625-.4169-.099-.77727-.25074-1.09375-.4375-.50374-.29698-.86092-.63176-1.09375-1.0625-.17912-.33513-.23372-.74032-.28125-1.125h5.75.34375.375v-.375-.34375h-.0625c-.0325-.59922-.0814-1.15708-.25-1.625-.20225-.56721-.51133-1.0725-.90625-1.46875-.35572-.35384-.77007-.60859-1.25-.78125-.47969-.17255-1.03129-.24999-1.625-.25zm20.0312 0c-.63888.00001-1.26541.11534-1.84375.34375-.57865.22253-1.09339.54558-1.53125.96875-.48555.46111-.82588.97276-1.0625 1.5625-.2287.58027-.34373 1.22591-.34375 1.90625 0 .70775.11003 1.39157.375 2.03125h.0312c.27195.64085.65807 1.18236 1.15625 1.625.43079.38036.92229.67639 1.46875.875.54634.19251 1.13467.28124 1.75.28125.65047 0 1.22091-.0794 1.75-.28125.52826-.19906 1.00867-.49638 1.4375-.875.50914-.45284.92094-1.01875 1.1875-1.65625.22108-.51612.30263-1.06909.34375-1.625h.0625v-.375-.34375h-.0625c-.0348-.56037-.11347-1.10609-.3125-1.59375-.24237-.59984-.60292-1.12178-1.09375-1.59375-.43164-.4174-.94242-.73119-1.5-.9375-.55216-.2128-1.14857-.31249-1.8125-.3125zm11.4688 0c-.53575.00001-1.10484.13126-1.75.40625-.40608.1748-.7085.38205-1.03125.5625v-.40625-.34375h-.375-1.40625-.34375v.34375c.0181.98078.0312 1.8518.0312 2.625.006.7754-.00001 1.41878 0 1.875 0 1.40016.012 2.39686 0 3-.0121.60305-.0312.89258-.0312.96875v.34375h.34375 1.4375.34375v-.34375c-.00002-.0932-.0131-.54196-.0312-1.46875-.0121-.93117 0-1.74408 0-2.40625 0-.38896-.006-.8867 0-1.5.005-.4922-.00099-.67993 0-.84375.50449-.28593.95684-.5348 1.34375-.6875.42444-.17274.78814-.25 1.0625-.25.33981 0 .59305.0686.71875.125.1442.0606.25273.12573.34375.25.0798.10873.12198.2564.15625.4375.0385.20327.0569.42809.0625.65625.006.26237.0312.68184.0312 1.25.006.56322-.00002.97338 0 1.25-.00001.83567-.0192 1.54535-.0312 2.15625-.0121.61429-.00001.94673 0 1.03125v.34375h.34375 1.4375.34375v-.34375c-.00002-.0934-.0131-.40015-.0312-1.03125-.012-.62751-.00001-1.41861 0-2.34375-.00001-.42259-.006-.85059 0-1.3125.006-.47037-.00002-.9213 0-1.375-.00001-.10441.004-.20135 0-.28125.47276-.25129.91151-.47062 1.28125-.59375.43485-.14289.81479-.21875 1.09375-.21875.50785 0 .82301.11012 1 .28125.164.15509.29562.53241.3125 1.15625.006.27973-.00002.7075 0 1.28125.006.56886.0312.97032.0312 1.21875-.00001.63417-.0192 1.31288-.0312 2.03125-.003.35962.003.64988 0 .84375s-.003.34214 0 .3125l-.0625.375h.40625 1.0625.375.34375v-.34375c-.00001-.0303.002-.26061 0-.34375-.004-.16652-.0192-.25545-.0312-.6875-.012-.64437-.0312-1.43868-.0312-2.375 0-.45061.0252-.88131.0312-1.28125.0122-.41251 0-.90591 0-1.5 0-.83657-.2694-1.54725-.8125-2.0625-.53959-.52504-1.29134-.78124-2.1875-.78125-.46909.00001-.9842.0974-1.59375.3125-.53852.19199-1.12988.50189-1.75.84375-.20304-.28872-.41306-.58764-.75-.78125-.45841-.26746-1.0197-.37499-1.65625-.375zm38.8125 0c-.53575.00001-1.10483.13126-1.75.40625-.40608.1748-.70851.38205-1.03125.5625v-.40625-.34375h-.34375-1.4375-.34375v.34375c.0181.98078.0312 1.85179.0312 2.625.006.77541 0 1.41881 0 1.875 0 1.40016.012 2.39687 0 3-.0121.60305-.0313.8916-.0312.96875v.34375h.34375 1.4375.34375v-.34375c0-.0936-.0131-.54195-.0312-1.46875-.0121-.93118-.00001-1.7441 0-2.40625 0-.38896-.006-.88669 0-1.5.005-.49219-.00099-.67988 0-.84375.5045-.28593.95685-.5348 1.34375-.6875.42442-.17274.78814-.25 1.0625-.25.33981 0 .593.0686.71875.125.14419.0606.2527.12571.34375.25.0798.10872.12196.25638.15625.4375.0385.20326.0881.42809.0937.65625.006.2624-.00003.68184 0 1.25.006.56321-.00001.97339 0 1.25 0 .83567.012 1.54535 0 2.15625-.0121.61429-.0313.94616-.0312 1.03125v.34375h.34375 1.4375.34375v-.34375c-.00002-.0933-.0131-.40014-.0312-1.03125-.012-.6275.00002-1.41861 0-2.34375-.00001-.42258-.006-.85058 0-1.3125.006-.47035.00001-.92127 0-1.375-.00001-.10442.004-.20133 0-.28125.47425-.25227.9418-.4703 1.3125-.59375.43485-.14289.78355-.21875 1.0625-.21875.50785 0 .82304.11014 1 .28125.16399.15509.29564.53242.3125 1.15625.006.27975.0313.70753.0312 1.28125.006.56884-.00004.97026 0 1.21875-.00003.63418-.0192 1.31288-.0312 2.03125-.003.35961.003.64989 0 .84375s-.003.34267 0 .3125l-.0312.375h.375 1.09375.34375.34375v-.34375c0-.0307.002-.26058 0-.34375-.004-.16657-.0192-.25546-.0312-.6875-.012-.64436-.0312-1.43867-.0312-2.375-.00001-.45061.0252-.88133.0312-1.28125.0122-.41248 0-.90589 0-1.5-.00002-.83658-.26944-1.54725-.8125-2.0625-.5396-.52504-1.29137-.78124-2.1875-.78125-.4691.00001-.98419.0974-1.59375.3125-.53849.19198-1.12989.50189-1.75.84375-.20304-.28873-.4131-.58764-.75-.78125-.45842-.26746-1.01972-.37499-1.65625-.375zm15 0c-.60975.00001-1.21093.0907-1.78125.3125-.56792.22342-1.0444.54965-1.4375.96875-.43671.4693-.7778 1.00632-1 1.5625-.22366.55983-.34374 1.16978-.34375 1.84375 0 .69647.17084 1.35574.46875 1.9375.29473.56307.63318 1.03357 1.0625 1.40625.50096.44512 1.12684.78495 1.875 1.03125h.0312c.7614.24266 1.63178.34374 2.625.34375.37343 0 .6875.0173.96875 0 .2731-.0112.40364-.0201.5-.0312l.28125-.0312.0312-.28125.21875-1.53125-.4375.0312c-.0532.004-.24229.0145-.53125.0312-.27536.0163-.56792.0312-.90625.0312-.60896 0-1.11898-.0635-1.53125-.15625-.41688-.099-.77721-.25073-1.09375-.4375-.50373-.29698-.86091-.63175-1.09375-1.0625-.17912-.33513-.23372-.74032-.28125-1.125h5.75.34375.375v-.375-.34375h-.0625c-.0325-.59921-.0814-1.15706-.25-1.625-.20224-.56721-.51135-1.0725-.90625-1.46875-.35572-.35385-.77007-.60859-1.25-.78125-.47968-.17255-1.03126-.24999-1.625-.25zm14.0938 0c-.60977.00001-1.21096.0907-1.78125.3125-.56794.22343-1.04438.54967-1.4375.96875-.43671.46931-.77779 1.00634-1 1.5625-.22366.55983-.34372 1.16978-.34375 1.84375 0 .69648.13964 1.35576.4375 1.9375.29475.56306.66444 1.03357 1.09375 1.40625.50098.44512 1.12686.78495 1.875 1.03125.76139.24266 1.66304.34374 2.65625.34375.37343 0 .68746.0173.96875 0 .2731-.0112.4036-.0201.5-.0312l.25-.0312.0625-.28125.21875-1.53125-.4375.0312c-.0532.004-.24226.0145-.53125.0312-.27536.0163-.56796.0312-.90625.0312-.60895 0-1.15018-.0635-1.5625-.15625-.41689-.099-.77729-.25075-1.09375-.4375-.50373-.29699-.82971-.63178-1.0625-1.0625-.17912-.33512-.2337-.7403-.28125-1.125h5.75.34375.34375v-.375-.34375h-.0625c-.0325-.59922-.0814-1.15708-.25-1.625-.20223-.56723-.48013-1.07251-.875-1.46875-.35571-.35383-.80126-.60858-1.28125-.78125-.47968-.17255-1.00004-.24999-1.59375-.25zm14.4062 0c-.60977.00001-1.21097.0907-1.78125.3125-.56794.22343-1.04439.54967-1.4375.96875-.43672.4693-.7778 1.00632-1 1.5625-.22366.55983-.34373 1.16978-.34375 1.84375 0 .69648.17088 1.35575.46875 1.9375.29475.56306.6332 1.03357 1.0625 1.40625.50098.44512 1.12687.78495 1.875 1.03125.7614.24266 1.66303.34374 2.65625.34375.37343 0 .68752.0173.96875 0 .2731-.0112.40363-.0201.5-.0312l.28125-.0312.0312-.28125.21875-1.53125-.4375.0312c-.0532.004-.24225.0145-.53125.0312-.27536.0163-.56797.0312-.90625.0312-.60896 0-1.11895-.0635-1.53125-.15625-.41691-.099-.77728-.25074-1.09375-.4375-.50374-.29698-.86091-.63175-1.09375-1.0625-.17912-.33513-.23371-.74031-.28125-1.125h5.75.34375.34375.0312l-.0312-.375v-.34375h-.0625c-.0325-.59893-.0502-1.15728-.21875-1.625-.20223-.5672-.5113-1.07249-.90625-1.46875-.35571-.35384-.80128-.60858-1.28125-.78125-.47969-.17255-1.00005-.24999-1.59375-.25zm30.8125 0c-.42984.00001-.91171.096-1.5.28125-.45138.13918-1.05701.42473-1.65625.71875v-.4375-.34375h-.34375-1.4375-.34375v.34375c.0181.88545.0312 1.71556.0312 2.5.006.78643-.00001 1.47756 0 2.0625 0 1.27166.012 2.23175 0 2.875-.0121.64211-.0313.9553-.0312 1.03125v.34375h.34375 1.4375.34375v-.34375c-.00002-.0913-.0131-.52189-.0312-1.4375-.0121-.9144-.00003-1.6984 0-2.34375 0-.49539-.006-1.05431 0-1.65625.005-.45224-.001-.5998 0-.75.48765-.26576.96334-.51206 1.4375-.6875.51901-.19202.94552-.28125 1.25-.28125.5561 0 .8472.14014 1 .3125.16187.18262.2956.55776.3125 1.15625.006.25658.0312.68186.0312 1.25.006.5632.00002.99344 0 1.28125-.00001.19975-.0192.71771-.0312 1.59375-.006.87576.005 1.42688 0 1.5625l-.0312.34375h.375 1.09375.34375.34375v-.34375c-.00001-.0259.001-.27295 0-.34375-.004-.18038-.0183-.3297-.0312-.875-.0121-.76355-.00001-1.36978 0-1.875-.00001-.31595-.006-.74286 0-1.25.0122-.51732-.00001-1.10714 0-1.8125-.00001-.85179-.26787-1.577-.8125-2.09375-.53418-.51975-1.25299-.78124-2.09375-.78125zm17.5938 0c-.60976.00001-1.21096.0907-1.78125.3125-.56793.22343-1.04439.54967-1.4375.96875-.43672.46931-.77778 1.00634-1 1.5625-.22364.55981-.34378 1.16975-.34375 1.84375 0 .69647.17082 1.35573.46875 1.9375.29475.56307.66447 1.03358 1.09375 1.40625.50097.44513 1.12688.78495 1.875 1.03125.76138.24266 1.63175.34374 2.625.34375.37343 0 .68748.0173.96875 0 .27311-.0112.40363-.0201.5-.0312l.28125-.0312.0312-.28125.21875-1.53125-.4375.0312c-.0532.004-.24225.0145-.53125.0312-.27534.0163-.56796.0312-.90625.0312-.60896 0-1.11893-.0635-1.53125-.15625-.4169-.099-.77727-.25074-1.09375-.4375-.50373-.29699-.86095-.63178-1.09375-1.0625-.17912-.33513-.23373-.74032-.28125-1.125h5.75.34375.375v-.375-.34375h-.0625c-.0325-.59922-.0814-1.15709-.25-1.625-.20223-.56723-.51138-1.07251-.90625-1.46875-.35573-.35385-.7701-.60859-1.25-.78125-.47969-.17255-1.03128-.24999-1.625-.25zm-105.156.125c-.2663.0112-.43407.0253-.53125.0312l-.28125.0312-.0312.28125-.15625 1.125-.0625.40625.4375-.0312c.32643-.0168.56123-.02.75-.0312.18368-.0106.42072-.0312.6875-.0312.4225 0 .78858.0207 1.09375.0625.30185.0362.57721.0985.8125.1875.33561.12613.56503.31583.71875.53125.0953.13358.10495.36738.15625.5625-.65848.0599-1.29943.11712-1.84375.21875-.66545.11968-1.2005.27439-1.625.4375-.6662.25479-1.19278.59121-1.59375 1.03125-.40376.44435-.62501 1.01767-.625 1.625 0 .57107.18416 1.08065.53125 1.5.33967.40216.78683.71264 1.3125.9375.39513.17058.85272.28768 1.375.375.51937.0868 1.01663.15624 1.53125.15625.79631 0 1.45361-.0223 1.96875-.0625.50125-.0335.75875-.0546.84375-.0625l.34375-.0312v-.3125c-.00001-.0562-.006-.53547 0-1.40625.005-.7761-.00059-1.84909 0-3.03125v-.375-.34375h-.0625c-.0253-.63608-.0498-1.21543-.21875-1.625-.19484-.4785-.48828-.89242-.875-1.21875-.41609-.347-.92811-.57476-1.53125-.71875-.58953-.14817-1.26503-.21874-2-.21875-.4689.00001-.84119-.0175-1.125 0zm68.75 0c-.94198.00001-1.75539.0521-2.4375.15625-.68133.0992-1.31926.29692-1.90625.5625-.82244.37153-1.49762.88545-2 1.53125-.51013.6557-.74998 1.43039-.75 2.28125 0 .83107.15827 1.56038.53125 2.15625.35917.57387.83146 1.01852 1.40625 1.375.57942.37337 1.2688.64354 2.0625.8125.77123.15854 1.54708.24787 2.28125.25-.0531.34468-.10958.68892-.28125.9375-.2183.32043-.6185.61318-1.28125.84375-.42945.14635-.93016.22768-1.46875.28125-.54775.0599-1.17762.11397-1.875.125h-.375l.0312.375.15625 1.09375.0312.28125h.3125c1.06619 0 1.98279-.0675 2.75-.21875.75855-.14379 1.42024-.33111 1.96875-.59375.69903-.34725 1.23849-.83956 1.625-1.4375.40793-.62036.59373-1.43941.59375-2.4375-.00001-.52048.006-1.09259 0-1.71875-.006-.62411 0-1.24202 0-1.84375-.00001-.88678-.006-1.79941 0-2.78125.01-.77877.0293-1.07058.0312-1.3125.00052-.0633 0-.31589 0-.34375v-.375h-.375c-.12496.00001-.22891 0-.34375 0h-.1875c-.16293.00001-.33106.00001-.5 0zm5.1875 0c-.26632.0112-.43409.0253-.53125.0312l-.28125.0312-.0312.28125-.15625 1.125-.0625.40625.4375-.0312c.32642-.0168.56121-.02.75-.0312.18366-.0106.4207-.0312.6875-.0312.42252 0 .7886.0207 1.09375.0625.30184.0362.5772.0985.8125.1875.33563.12613.5651.31589.71875.53125.0968.1357.13614.36319.1875.5625-.66095.06-1.32898.1168-1.875.21875-.66544.11968-1.20051.27438-1.625.4375-.6662.25479-1.19278.5912-1.59375 1.03125-.40379.44436-.62498.98644-.625 1.59375 0 .57107.18414 1.1119.53125 1.53125.33968.40217.78688.71264 1.3125.9375.39514.17058.85273.28768 1.375.375.51937.0868 1.01665.15624 1.53125.15625.79633 0 1.4536-.0223 1.96875-.0625.50125-.0335.75877-.0546.84375-.0625l.34375-.0312v-.3125c-.00001-.0561-.006-.53546 0-1.40625.005-.77611-.00061-1.8491 0-3.03125v-.375-.34375h-.0625c-.0253-.63608-.0498-1.21543-.21875-1.625-.19485-.47851-.48833-.89243-.875-1.21875-.41608-.347-.92807-.57476-1.53125-.71875-.58952-.14817-1.26505-.21874-2-.21875-.46888.00001-.84123-.0175-1.125 0zm-77.7812.0625c-.83364.00001-1.61968.071-2.40625.25-.7836.17395-1.48095.43459-2.0625.78125-.64564.38223-1.15921.89234-1.5625 1.5-.41021.61202-.62501 1.29621-.625 2.03125 0 .81204.20872 1.58643.65625 2.25.44587.66111 1.06787 1.17104 1.84375 1.5625.56785.28328 1.20486.51144 1.90625.65625.70103.13895 1.45141.18749 2.25.1875.0724 0 .17867-.00001.28125 0 .10863 0 .17051-.00001.21875 0h.34375v-.3125l.0937-.8125h.0312v-.3125l.0312-.34375h-.0312v-.0312h-.3125-.0312l-.3125-.0312v.0312c-.0927.00001-.17279.00001-.25 0-.5749.00001-1.14494-.0444-1.65625-.125-.50499-.0796-.92254-.19979-1.3125-.375h-.0312c-.49479-.21868-.86116-.51417-1.15625-.90625-.27799-.38097-.43751-.84261-.4375-1.4375 0-.47242.15601-.9148.46875-1.34375.30937-.42434.70861-.73514 1.25-.9375h.0312c.42334-.16402.83544-.27502 1.28125-.34375.45094-.0739 1.03123-.12499 1.6875-.125.0423.00001.0767.00001.125 0 .0543.00001.11397.00001.15625 0h.375l-.0312-.375-.0937-1.125v-.3125h-.34375c-.0422.00001-.0839.00001-.15625 0-.0664.00001-.15243.00001-.21875 0zm102.656 0c-.83365.00001-1.61967.071-2.40625.25-.78361.17395-1.48095.43459-2.0625.78125-.64565.38223-1.19047.89234-1.59375 1.5-.41022.61202-.59377 1.2962-.59375 2.03125 0 .81204.20871 1.58642.65625 2.25.44586.66111 1.0679 1.17104 1.84375 1.5625.56786.28328 1.20489.51144 1.90625.65625.70105.13895 1.4514.18749 2.25.1875.0724 0 .17866-.00001.28125 0 .10861 0 .1705-.00001.21875 0h.3125l.0312-.3125.0937-.8125h.0312v-.3125l.0312-.34375h-.0312v-.0312h-.3125-.0312l-.3125-.0312v.0312c-.0952.00001-.2023.00001-.28125 0-.57488.00001-1.11369-.0444-1.625-.125-.50499-.0796-.95376-.19979-1.34375-.375-.49478-.21868-.86116-.51417-1.15625-.90625-.27799-.38096-.4375-.8426-.4375-1.4375 0-.47243.15601-.91481.46875-1.34375.3094-.42436.7086-.73515 1.25-.9375.42331-.16402.86669-.27502 1.3125-.34375.45092-.0739 1.03124-.12499 1.6875-.125.0423.00001.0767.00001.125 0 .0543.00001.11398.00001.15625 0h.34375v-.375l-.0937-1.125v-.3125h-.34375c-.0422.00001-.0838.00001-.15625 0-.0664.00001-.15243.00001-.21875 0zm-165.406 1.5c.60749.00001 1.06494.17036 1.40625.5.24983.23445.35104.61942.46875 1h-3.90625c.16147-.37249.31836-.75885.59375-1 .38792-.34447.83095-.5 1.4375-.5zm9.46875 0c.60747.00001 1.03371.17037 1.375.5.24983.23445.35103.61941.46875 1h-3.90625c.16147-.37249.31837-.75885.59375-1 .38794-.34448.8622-.5 1.46875-.5zm85.3125 0c.60749.00001 1.03371.17037 1.375.5.24984.23445.35103.61942.46875 1h-3.90625c.16148-.37249.31838-.75885.59375-1 .38792-.34447.86221-.5 1.46875-.5zm14.0625 0c.60749.00001 1.06491.17035 1.40625.5.24983.23445.35104.61942.46875 1h-3.90625c.16147-.37249.31836-.75885.59375-1 .38793-.34447.83098-.5 1.4375-.5zm14.4375 0c.6075.00001 1.03365.17034 1.375.5.24983.23445.35104.61942.46875 1h-3.90625c.16147-.37249.31836-.75886.59375-1 .38792-.34447.86223-.5 1.46875-.5zm48.4062 0c.6075.00001 1.03367.17035 1.375.5.24983.23445.35102.61941.46875 1h-3.90625c.16147-.37249.31836-.75885.59375-1 .38791-.34447.86224-.5 1.46875-.5zm-216.656.0625c.31096.00001.62513.0532.90625.15625.28602.098.52036.22746.71875.40625v.0312c.34325.30264.58754.64799.75 1.09375.17275.45881.25.9231.25 1.40625-.00001.46037-.085.89549-.25 1.3125-.16355.41349-.38115.77414-.6875 1.0625-.21288.20169-.45954.36128-.75.46875-.28386.10697-.59503.15625-.9375.15625-.30992 0-.6038-.0365-.875-.125-.27118-.0935-.48591-.23889-.6875-.40625-.37577-.31232-.6473-.6747-.8125-1.09375-.17009-.43644-.25-.90643-.25-1.4375-.00001-.46034.0841-.91399.25-1.34375.17121-.42913.37753-.73733.65625-1v-.0312c.24367-.23542.52022-.39583.78125-.5.25732-.10266.55549-.15624.9375-.15625zm74.5312 0c.31096.00001.59387.0532.875.15625.28602.098.52035.22746.71875.40625l.0312.0312c.34324.30264.58756.648.75 1.09375.17276.4588.24998.92309.25 1.40625-.00001.46036-.0851.89547-.25 1.3125-.16354.41348-.38116.77413-.6875 1.0625-.21288.20169-.45953.36128-.75.46875-.28385.10697-.59501.15625-.9375.15625-.3099 0-.60378-.0365-.875-.125-.27118-.0935-.51713-.23888-.71875-.40625-.37576-.31231-.61602-.67468-.78125-1.09375-.17008-.43645-.28124-.90643-.28125-1.4375 0-.46035.0841-.91399.25-1.34375.17121-.42912.40879-.73732.6875-1v-.0312c.24367-.23541.48898-.39583.75-.5.25731-.10266.58671-.15624.96875-.15625zm105.062.15625c.008.52423.0312 1.04076.0312 1.53125.005.46414-.001.81204 0 1.15625.00031.10233 0 .25204 0 .34375v.34375c-.00087.59684.005 1.16566 0 1.625-.004.35034-.0299.43787-.0312.59375-.50963-.002-1.01451-.0629-1.46875-.15625-.46346-.0965-.84656-.22506-1.1875-.375-.49524-.21885-.86778-.52081-1.15625-.90625-.27338-.37214-.43753-.79047-.4375-1.34375 0-.53363.15042-.98823.4375-1.40625.28362-.41294.68675-.74398 1.25-.96875.4449-.17636.8631-.28151 1.25-.34375.36423-.0577.82421-.0886 1.3125-.0937zm-113.75.21875c0 .13537-.00001.27227 0 .40625v.40625c0 .11172-.00001.24141 0 .34375v.34375c-.00052 1.37798-.0258 2.53983-.0312 3.25-.004.54709.001.6847 0 .875-.50606-.007-1.00596-.0364-1.46875-.125-.49333-.10081-.9266-.24608-1.3125-.4375-.43153-.2122-.77454-.50311-1.0625-.875-.27173-.35092-.40624-.77115-.40625-1.28125 0-.58164.14807-1.05502.4375-1.46875.2921-.42248.69754-.73368 1.25-.96875.34882-.14852.76986-.28359 1.28125-.375.40799-.0721.86072-.0787 1.3125-.0937zm49.4375 2.8125c.002.21525 0 .4451 0 .625-.00001.15145 0 .2509 0 .375v.34375.34375c-.001.36665.004.72832 0 .96875v.0312.21875c-.0707.002-.15074-.002-.21875 0-.17249.005-.32228.00001-.4375 0-.38686 0-.74528-.0249-1.09375-.0625-.33755-.0423-.63424-.10021-.90625-.1875-.34495-.10968-.60655-.25844-.78125-.4375-.15825-.16618-.21876-.37656-.21875-.6875 0-.25863.0853-.41672.28125-.59375.23201-.20484.48475-.36591.78125-.46875.41954-.15005.9479-.26229 1.59375-.34375.48035-.0646.73867-.10219 1-.125zm73.9375 0c.002.21525-.00002.44506 0 .625-.00001.15145 0 .2509 0 .375v.34375.34375c-.001.36665.004.7283 0 .96875v.0312.21875c-.0707.002-.15073-.002-.21875 0-.1725.005-.32226.00001-.4375 0-.38686 0-.74532-.0249-1.09375-.0625-.33755-.0423-.63426-.10021-.90625-.1875-.34494-.10968-.60654-.25843-.78125-.4375-.15825-.16618-.21877-.37656-.21875-.6875 0-.25863.0853-.41672.28125-.59375.232-.20483.48477-.36591.78125-.46875.41955-.15005.94791-.26229 1.59375-.34375.48033-.0646.73866-.10219 1-.125z" fill="#666"/>
  <path d="m557.657 425.583h-6.8294v-59.3544c0-.40286-.13428-1.03592-.42204-1.86082-.55633-1.59225-1.55388-2.80083-3.01185-3.62573-1.17021-.63306-2.5898-.94-4.2396-.94-.0767 0-.21102.0384-.42204.0959-.21102.0768-.34531.11511-.42205.11511-.40285 0-1.03591.24939-1.86082.72898-1.38122.74816-2.3596 1.86082-2.91592 3.31879-.40286.90163-.61388 1.63061-.61388 2.16776v59.3544h-6.82941v-59.3544c0-.0576-.0384-.36449-.1151-.92082-.21102-.84409-.5947-1.66899-1.15102-2.49389-1.24694-1.72654-2.82001-2.74327-4.77675-3.01184h-1.43878-.42204-.40286c-.3453 0-.97837.24939-1.88.72898-2.01429 1.03592-3.14613 2.66654-3.43389 4.89185-.0576.0767-.0959.17265-.0959.30694v59.8532h-7.05961v-59.5463c0-1.38123.30694-2.83919.92082-4.35471.28775-.63306.67143-1.34286 1.15102-2.18694.95919-1.72654 2.43633-3.20368 4.41226-4.41226 1.95674-1.20857 4.02858-1.88001 6.17716-2.01429.53715-.0767 1.3045-.1151 2.28286-.0959.0575-.0192.23021.0192.51796.0959.26857.0575.44123.0959.51796.0959.61388 0 1.78409.34531 3.52981 1.03592.26857.0767.57551.21102.92082.42204 1.18939.69062 2.43633 1.72654 3.74083 3.10777 1.11265-1.17021 2.07184-2.03348 2.91592-2.58981 2.20613-1.45796 5.08369-2.18694 8.59431-2.16776.0767-.0192.24939.0192.51796.0959.28775.0575.46041.0959.53714.0959.61388 0 1.72654.30694 3.31879.94001 3.66409 1.45795 6.11961 3.97103 7.36655 7.57756.61388 1.86083.92081 3.31878.92081 4.35471v59.5463z" fill="#bfff80" fill-rule="evenodd"/>
  <path d="m128.488 23.656h2.944v17.304h-2.944z" fill="#bfff80" fill-rule="evenodd" transform="matrix(2.39797 0 0 2.39797 256.07 327.36)"/>
  <path d="m605.156 425.583h-6.82941v-28.1233c0-.13429-.0408-.47959-.1151-1.03592-.55632-2.62817-2.16776-4.31634-4.87266-5.08369-.42204-.13429-1.24935-.21102-2.49389-.21102-.0767 0-.2302.0384-.46041.1151-.24939.0767-.36209.0959-.36209.0959-.34771 0-1.01913.24939-1.97593.72899-1.88.90163-2.97347 2.49388-3.31878 4.77674-.0767.0767-.1175.17265-.1175.30694v28.4303h-7.05721v-41.4944h7.05721c-.0552.63546-.0552 1.17021 0 1.6498 2.37878-1.09346 4.91343-1.6498 7.61834-1.6498.0743 0 .26617.0408.63306.11751.3477.0552.55633.0935.61388.0935 1.45796 0 3.24445.65224 5.31389 1.97592 1.74812 1.03832 3.14853 2.41715 4.18206 4.14608 1.45795 2.28287 2.18694 4.50817 2.18694 6.63757v28.5238h-.002z" fill="#bfff80" fill-rule="evenodd"/>
  <path d="m625.702 391.129h-6.84859v21.3899c.0767.19183.15347.51795.21102.92081.49878 2.22532 1.84404 3.74323 4.04777 4.56573.47959.13428.74816.21102.8249.21102.0767 0 .0959.0384.0959.0959h.1151c.0767 0 .21103.0384.42205.1151.19184.0767.34771.0959.40286.0959h.36448.3645v7.05961c-2.84159-.13668-5.37144-.86327-7.57757-2.16776-1.66898-.97837-3.05022-2.3596-4.14608-4.16287-1.45557-2.34041-2.18455-4.64246-2.18455-6.84619v-49.0744h7.05721v20.6417h6.84859v7.15553h.002z" fill="#bfff80" fill-rule="evenodd"/>
  <path d="m566.654 379.772c-1.41959 0-2.7049-1.09347-2.7049-2.57061v-.63307-7.78859h-.78653v-2.64736l4.1245.0192h.61388c1.43877 0 2.7049 1.07429 2.7049 2.55144v11.069h-3.95185z" fill="#bfff80" fill-rule="evenodd"/>
  <g fill="#fff" fill-rule="evenodd">
   <path d="m64.168 23.48h2.208v17.48h-2.208z" transform="matrix(2.39797 0 0 2.39797 256.07 327.36)"/>
   <path d="m441.941 425.583h-5.29471v-31.7107c0-1.43877-.51796-2.68572-1.55389-3.72164-1.03591-1.03592-2.28286-1.55148-3.72163-1.55148-1.45797 0-2.70491.51795-3.74083 1.55148-1.03592 1.03592-1.55389 2.28287-1.55389 3.72164v31.7107h-5.27552v-31.7107c0-2.89674 1.01674-5.39063 3.08858-7.46006 2.07184-2.07185 4.56573-3.11017 7.48166-3.11017 2.89674 0 5.39062 1.03832 7.46246 3.11017 2.07184 2.06943 3.10777 4.56332 3.10777 7.46006z"/>
   <path d="m467.033 415.01c0 2.91592-1.03592 5.39063-3.08858 7.46247-2.07184 2.06945-4.56573 3.10776-7.48165 3.10776-2.89674 0-5.39063-1.03831-7.46247-3.10776-2.07184-2.07184-3.10776-4.54655-3.10776-7.46247v-31.7083h5.2947v31.7107c0 1.45796.51796 2.68572 1.55388 3.72164 1.03592 1.03832 2.28287 1.55389 3.72165 1.55389 1.45796 0 2.7049-.51797 3.74082-1.55389s1.55388-2.26128 1.55388-3.72164v-31.7107h5.27553z"/>
   <path d="m89.624 23.328h2.432l1.984 5.472 1.984-5.472h2.424l-3.2 8.816 3.2 8.816h-2.424l-1.984-5.472-1.984 5.472h-2.432l3.2-8.816z" transform="matrix(2.39797 0 0 2.39797 256.07 327.36)"/>
   <path d="m412.718 380.136c-1.41959 0-2.68572-1.09348-2.68572-2.57062v-.63306-7.7886h-.80572v-2.64735l2.6916.0192h.61388c1.41959 0 2.68571 1.07429 2.68571 2.55144v11.069h-2.49975z"/>
   <path d="m388.469 352.877v62c0 2.91592 1.02191 5.39691 3.09375 7.46875 1.94604 1.94379 4.27802 2.97534 6.96875 3.09375v.0312h.53125 5.375v-5.3125h-5.375c-1.72641 0-2.71408-.49039-3.75-1.46875-1.03591-.95679-1.5625-2.1067-1.5625-3.46875v-62.3438h-5.28125z"/>
  </g>
  <path d="m331.79 510.933c-21.2901 0-39.7658-16.1399-39.7658-37.411l-.0191-21.9923v-6.58604h-13.4978v-36.6513l56.9204.26806 17.8056.0383c21.3093 0 39.7658 16.1207 39.7658 37.4109v64.9233h-61.209z" fill-rule="evenodd" filter="url(#f)" opacity=".26" transform="matrix(1.04293 0 0 1.04293 -46.85 -90.02)"/>
  <path d="m354.825 425.265v-49.4452c0-16.5191-14.4866-29.9098-32.3608-29.9098h-18.5517v-.0399l-50.1752-.21924v18.0409h7.7022c5.37631 0 6.32609 3.71136 6.32609 8.84831l.0399 31.8943c0 16.5191 14.4867 29.9098 32.3409 29.9098h44.082c5.65135 0 10.5965-3.57895 10.5965-9.07924z" fill="url(#e)" fill-rule="evenodd"/>
  <path d="m142.938 500.531c-10.7518-7.40935-18.3668-15.9203-24.7812-27.1875-12.6444-23.3581-9.68791-34.9533-41-37.6875-9.03629 0-15.0512-2-24.5625-2v3.3125c0 .00001 3.75868 1.90749 7.0625 1.90749 4.9267.00001 5.78125 3.41765 5.78125 8.125l.03125 29.155c0 15.1376 13.2952 27.4062 29.6562 27.4062h40.375c2.96358 0 5.62572-1.16787 7.4375-3.03125z" fill="url(#c)" filter="url(#a)" opacity=".175" transform="matrix(1.0485 0 0 1.0485 200.58 -95.36)"/>
  <path d="m105.518 438.54c-3.83671 0-7.24574 1.42445-9.98484 4.1914-2.73772 2.76548-4.1752 6.21796-4.17519 10.1142v19.6947h8.93296v-19.6947c0-1.49338.48728-2.66108 1.55355-3.73818 1.06977-1.08055 2.2026-1.56971 3.67352-1.56971 1.50175 0 2.61758.4867 3.68969 1.56971 1.06628 1.0771 1.55356 2.2448 1.55356 3.73818v19.6947h8.93297v-19.6947c0-1.49338.48728-2.66108 1.55356-3.73818 1.07211-1.08301 2.18794-1.56971 3.68971-1.56971 1.47093 0 2.60373.48916 3.6735 1.56971 1.06627 1.0771 1.55356 2.2448 1.55356 3.73818l.0486 23.0122c0 4.90894-4.67486 9.04618-10.6807 9.04618l-28.8055-.11326c-4.63471 0-8.59313-4.51117-8.59313-10.3085v-43.3353h-8.44746v45.0021c0 4.77471 1.74718 8.96178 5.14616 12.3476 2.90519 2.8676 6.39907 4.56445 10.3247 4.98427v.16191h32.0745c4.92872 0 9.25884-1.83265 12.7521-5.38904h.0162c2.97102-3.05245 4.70787-6.70998 5.12997-10.8262l-.0324-24.5819c0-3.89625-1.43744-7.34873-4.17521-10.1142-2.73906-2.76695-6.14812-4.1914-9.98482-4.1914-3.76604 0-7.06133 1.40042-9.72593 3.96479-2.65681-2.56014-5.92908-3.96479-9.69356-3.96479z" fill-opacity=".08" fill-rule="evenodd" filter="url(#b)" transform="matrix(1.0485 0 0 1.0485 200.58 -95.36)"/>
  <path d="m310.468 364.69c-4.02279 0-7.59716 1.49353-10.4691 4.39468-2.87051 2.8996-4.3777 6.51953-4.37769 10.6047v20.6498h9.36621v-20.6498c0-1.5658.51091-2.79014 1.62889-3.91948 1.12166-1.13295 2.30943-1.64584 3.85169-1.64584 1.57458 0 2.74453.51031 3.86864 1.64584 1.11799 1.12934 1.62891 2.35368 1.62891 3.91948v20.6498h9.3662v-20.6498c0-1.5658.51092-2.79014 1.62892-3.91948 1.1241-1.13553 2.29405-1.64584 3.86866-1.64584 1.54227 0 2.73001.51289 3.85165 1.64584 1.11799 1.12934 1.62891 2.35368 1.62891 3.91948l.0509 24.1283c0 5.14702-4.90159 9.48491-11.1987 9.48491l-30.2026-.11875c-4.85949 0-9.00989-4.72996-9.00989-10.8085v-45.437h-8.85716v47.1847c0 5.00628 1.83192 9.39642 5.39575 12.9465 3.04609 3.00667 6.70943 4.95566 10.8254 5.39584l33.6301-.00008c5.16776 0 9.70788-1.92153 13.3706-5.6504h.017c3.1151-3.2005 4.9362-7.03541 5.37877-11.3513l-.0339-25.7742c0-4.08521-1.50714-7.70514-4.37769-10.6047-2.87191-2.90115-6.44631-4.39468-10.4691-4.39468-3.94869 0-7.4038 1.46834-10.1976 4.15708-2.78567-2.68431-6.21663-4.15708-10.1637-4.15708z" fill="#fff" fill-rule="evenodd"/>
  <path d="m304.96 413.216v9.25h22c5.16774 0 9.68104-1.92738 13.3437-5.65625h.0313c3.11511-3.20051 4.93243-7.02785 5.375-11.3438v-5.25h-9.34375v3.59375c0 5.14705-4.89038 9.46875-11.1875 9.46875l-20.2187-.0625z" fill="#52a800" fill-rule="evenodd" opacity=".3"/>
  <path d="m299.853 441.191c-21.2901 0-39.7658-16.1399-39.7658-37.411l-.0191-25.8276v-6.58603h-13.4978v-32.816l56.9204.26806 17.8056.0383c21.3092 0 39.7658 16.1207 39.7658 37.4108v64.9234h-61.209zm52.536-17.4157v-47.5077c0-15.8718-13.9189-28.7378-31.0927-28.7378h-17.8247v-.0383l-48.209-.21065v15.4124h5.40037c3.6664 0 8.0782 3.44547 8.0782 8.50158l.0383 32.5662c0 15.8718 13.919 28.7378 31.0736 28.7378h42.3546c5.42989 0 10.1813-3.43871 10.1813-8.72347z" fill="#fff" fill-rule="evenodd"/>
 </g>
 <text fill="#fff" font-family="Skia" font-size="19.756" font-weight="bold" transform="matrix(1.14834 0 0 .87082 -18.77 -2.12)" x="337.79" y="1011.98"><tspan x="337.79" y="1011.98">from freedom came elegance</tspan></text>
</svg>
