<?xml version="1.0" encoding="UTF-8" standalone="no"?>
<svg
   xmlns:dc="http://purl.org/dc/elements/1.1/"
   xmlns:cc="http://creativecommons.org/ns#"
   xmlns:rdf="http://www.w3.org/1999/02/22-rdf-syntax-ns#"
   xmlns:svg="http://www.w3.org/2000/svg"
   xmlns="http://www.w3.org/2000/svg"
   xmlns:sodipodi="http://sodipodi.sourceforge.net/DTD/sodipodi-0.dtd"
   xmlns:inkscape="http://www.inkscape.org/namespaces/inkscape"
   width="368.57812"
   height="78.378914"
   version="1.1"
   id="svg873"
   sodipodi:docname="Red_Hat_Logo_2019.svg"
   inkscape:version="0.92.4 5da689c313, 2019-01-14">
  <metadata
     id="metadata879">
    <rdf:RDF>
      <cc:Work
         rdf:about="">
        <dc:format>image/svg+xml</dc:format>
        <dc:type
           rdf:resource="http://purl.org/dc/dcmitype/StillImage" />
        <dc:title></dc:title>
      </cc:Work>
    </rdf:RDF>
  </metadata>
  <defs
     id="defs877" />
  <sodipodi:namedview
     pagecolor="#ffffff"
     bordercolor="#666666"
     borderopacity="1"
     objecttolerance="10"
     gridtolerance="10"
     guidetolerance="10"
     inkscape:pageopacity="0"
     inkscape:pageshadow="2"
     inkscape:window-width="1920"
     inkscape:window-height="1025"
     id="namedview875"
     showgrid="false"
     fit-margin-top="0"
     fit-margin-left="0"
     fit-margin-right="0"
     fit-margin-bottom="0"
     inkscape:zoom="2.1305057"
     inkscape:cx="102.44077"
     inkscape:cy="15.319567"
     inkscape:window-x="0"
     inkscape:window-y="32"
     inkscape:window-maximized="1"
     inkscape:current-layer="g871" />
  <g
     id="g871"
     style="fill:none"
     transform="translate(-48.504081,-41.357957)">
    <path
       id="path869"
       style="fill:#000000;stroke-width:0.97674274"
       d="m 227.91619,41.357957 -16.21875,3.679688 v 20.929688 a 26.998949,28.3 0 0 0 -13.54688,-3.679688 c -15.44569,0 -27.58984,12.51 -27.58984,28.5 a 26.951247,28.25 0 0 0 27.0957,28.599605 23.965144,25.12 0 0 0 14.24219,-4.83007 l -0.0391,4.14062 h 16.05664 z m 174.32031,3.660157 -16.21875,3.679687 v 14.320313 h -10.76953 v 14.199219 h 10.73242 v 24.499997 c 0,11.89001 6.82122,17.66992 19.26172,17.66992 a 49.714318,52.11 0 0 0 11.3418,-1.67968 v -13.79102 a 23.698017,24.84 0 0 1 -7.32617,1.16016 c -5.12312,0 -7.02149,-1.67851 -7.02149,-6.728518 V 77.217333 h 14.84571 V 63.018114 H 402.2365 Z M 48.504081,45.037645 V 118.65679 H 65.761893 V 91.836473 H 78.898612 L 92.150565,118.65679 H 111.46892 L 96.011893,89.207567 A 21.246169,22.27 0 0 0 109.25603,68.486864 c 0,-13.25 -9.931409,-23.449219 -24.804684,-23.449219 z m 203.730469,0 -0.0664,73.650395 h 17.25782 V 89.836473 h 28.89843 v 28.820317 h 17.30664 V 45.037645 H 298.3908 V 73.326708 H 269.49236 V 45.037645 Z M 65.779471,60.49663 h 17.06836 c 5.724161,0 8.929687,3.780547 8.929687,8.310547 0,4.53 -3.205526,8.310541 -8.929687,8.310546 h -17.06836 z m 282.029299,1.5 c -8.12829,0 -16.1612,2.001562 -24.80469,6.101562 l 5.82031,12.519531 c 6.22024,-2.739997 11.4487,-4.419921 16.05664,-4.419921 6.67819,0 10.13086,2.728593 10.13086,8.308593 v 2.730469 a 47.25293,49.53 0 0 0 -12.03906,-1.580078 c -13.65212,0 -21.87692,6.000454 -21.87695,16.730464 0,9.78 7.4242,17.24024 19.26367,17.24024 l 0.0176,-0.0293 c 5.72416,0 10.34209,-1.26055 14.65429,-4.31055 v 3.36914 h 16.04688 V 82.99663 c 0,-13.56 -8.72058,-21 -23.26953,-21 z M 138.5158,62.07671 a 27.256535,28.57 0 0 0 -27.66797,28.810545 l -0.0176,0.0293 c 0,16.200015 12.63965,28.820315 28.88672,28.820315 8.92969,0 15.45576,-2.52993 22.18164,-8.41993 l -10.74219,-10 c -2.50908,2.74001 -6.22131,4.21094 -10.6289,4.21094 a 13.728441,14.39 0 0 1 -13.05078,-8.830078 h 37.82812 v -4.230469 c 0,-17.67 -11.33384,-30.390625 -26.78906,-30.390625 z m -0.33398,13.839844 c 5.11356,0 9.42511,3.470078 11.13281,8.830078 h -22.13477 c 1.60276,-5.53 5.62125,-8.830078 11.00196,-8.830078 z m 62.24023,0.771484 a 16.428336,17.22 0 0 1 11.2207,4.318359 v 19.451173 a 15.607872,16.36 0 0 1 -11.2207,4.45898 c -7.82301,0 -13.94727,-6.09984 -13.94727,-14.08984 v -0.03906 c 0,-8 6.01932,-14.099609 13.94727,-14.099609 z m 143.83008,19.878906 a 41.13762,43.12 0 0 1 9.63476,1.259766 v 7.15039 a 20.521109,21.51 0 0 1 -10.14257,2.63086 c -5.20899,0 -8.32618,-2.10031 -8.32618,-5.57031 0,-3.680018 3.52007,-5.470706 8.83399,-5.470706 z"
       inkscape:connector-curvature="0" />
  </g>
</svg>
