<?xml version="1.0" encoding="UTF-8" standalone="no"?>
<svg xmlns:dc="http://purl.org/dc/elements/1.1/" xmlns:cc="http://creativecommons.org/ns#" xmlns:rdf="http://www.w3.org/1999/02/22-rdf-syntax-ns#" xmlns:svg="http://www.w3.org/2000/svg" xmlns="http://www.w3.org/2000/svg" xmlns:sodipodi="http://sodipodi.sourceforge.net/DTD/sodipodi-0.dtd" xmlns:inkscape="http://www.inkscape.org/namespaces/inkscape" id="Layer_1" data-name="Layer 1" viewBox="0 0 208.78999 50.360001" version="1.1" sodipodi:docname="red-hat-enterprise-linux-logo.svg" width="208.78999" height="50.360001" inkscape:version="1.0.1 (3bc2e813f5, 2020-09-07)">
  <metadata id="metadata34">
    <rdf:RDF>
      <cc:Work rdf:about="">
        <dc:format>image/svg+xml</dc:format>
        <dc:type rdf:resource="http://purl.org/dc/dcmitype/StillImage"/>
        <dc:title>Brand_Standards-Red_Hat-Artboard 15-RGB</dc:title>
      </cc:Work>
    </rdf:RDF>
  </metadata>
  <sodipodi:namedview pagecolor="#ffffff" bordercolor="#666666" borderopacity="1" objecttolerance="10" gridtolerance="10" guidetolerance="10" inkscape:pageopacity="0" inkscape:pageshadow="2" inkscape:window-width="1920" inkscape:window-height="1016" id="namedview32" showgrid="false" fit-margin-top="0" fit-margin-left="0" fit-margin-right="0" fit-margin-bottom="0" inkscape:zoom="4.7888128" inkscape:cx="115.88851" inkscape:cy="25.18" inkscape:window-x="0" inkscape:window-y="27" inkscape:window-maximized="1" inkscape:current-layer="Layer_1"/>
  <defs id="defs4">
    <style id="style2">.cls-1{fill:#fff;stroke:#d9d9d9;}.cls-2{fill:#e00;}</style>
  </defs>
  <title id="title6">Brand_Standards-Red_Hat-Artboard 15-RGB</title>
  <g id="Group_150" data-name="Group 150" transform="translate(-26.61,-44.82)">
    <g id="Group_79" data-name="Group 79">
      <path id="Path_377" data-name="Path 377" d="m 74.36,75.31 h 11.31 v 2 h -9 v 4.6 h 5.91 v 2 h -5.91 v 4.74 h 9.09 v 2 h -11.4 z"/>
      <path id="Path_378" data-name="Path 378" d="m 87.86,79.5 h 2.19 v 1.12 a 4.58,4.58 0 0 1 3.35,-1.34 4.16,4.16 0 0 1 4.36,4 2.67,2.67 0 0 1 0,0.4 v 7 H 95.57 V 84 a 2.6,2.6 0 0 0 -2.36,-2.82 h -0.4 a 3.18,3.18 0 0 0 -2.76,1.45 v 8 h -2.19 z"/>
      <path id="Path_379" data-name="Path 379" d="M 101.29,81.34 H 98.92 V 79.5 h 2.37 v -2.85 l 2.17,-0.52 v 3.37 h 3.28 v 1.84 h -3.28 v 6 c 0,1.14 0.46,1.55 1.64,1.55 a 4.17,4.17 0 0 0 1.6,-0.26 v 1.84 a 7.35,7.35 0 0 1 -2.08,0.33 c -2.17,0 -3.33,-1 -3.33,-3 z"/>
      <path id="Path_380" data-name="Path 380" d="m 113.47,90.85 a 5.74,5.74 0 0 1 -5.85,-5.63 v -0.16 a 5.59,5.59 0 0 1 5.46,-5.73 h 0.13 A 5.52,5.52 0 0 1 118.6,85 v 0.82 h -8.81 a 3.76,3.76 0 0 0 3.77,3.2 4.32,4.32 0 0 0 2.82,-1 l 1.4,1.38 a 6.67,6.67 0 0 1 -4.31,1.45 z m -3.66,-6.7 h 6.62 a 3.33,3.33 0 0 0 -6.62,0 z"/>
      <path id="Path_381" data-name="Path 381" d="m 120.68,79.5 h 2.19 v 1.42 a 3.48,3.48 0 0 1 3.07,-1.66 2.78,2.78 0 0 1 1.11,0.17 v 2 a 4,4 0 0 0 -1.29,-0.24 3.05,3.05 0 0 0 -2.89,2 v 7.45 h -2.19 z"/>
      <path id="Path_382" data-name="Path 382" d="m 128.8,79.5 h 2.2 v 1.07 a 5.12,5.12 0 0 1 3.42,-1.25 5.62,5.62 0 0 1 5.58,5.62 v 0.12 a 5.63,5.63 0 0 1 -5.51,5.76 h -0.16 a 5.54,5.54 0 0 1 -3.35,-1.1 v 5.46 h -2.2 z m 2.2,3.07 v 5 a 4.1,4.1 0 0 0 3.11,1.31 3.72,3.72 0 0 0 3.77,-3.66 v -0.17 a 3.75,3.75 0 0 0 -3.64,-3.86 h -0.13 A 4,4 0 0 0 131,82.57 Z"/>
      <path id="Path_383" data-name="Path 383" d="m 142.1,79.5 h 2.19 v 1.42 a 3.5,3.5 0 0 1 3.07,-1.66 2.86,2.86 0 0 1 1.12,0.17 v 2 a 4,4 0 0 0 -1.29,-0.24 3.06,3.06 0 0 0 -2.9,2 v 7.45 h -2.19 z"/>
      <path id="Path_384" data-name="Path 384" d="M 150,76.34 A 1.34,1.34 0 0 1 151.33,75 v 0 a 1.36,1.36 0 1 1 0,2.71 1.34,1.34 0 0 1 -1.33,-1.37 z m 2.43,14.31 h -2.19 V 79.5 h 2.19 z"/>
      <path id="Path_385" data-name="Path 385" d="m 155.14,87.76 a 5.84,5.84 0 0 0 3.64,1.4 c 1.57,0 2.67,-0.68 2.67,-1.67 0,-0.79 -0.57,-1.25 -1.8,-1.42 l -2,-0.29 c -2.21,-0.32 -3.33,-1.35 -3.33,-3.08 0,-2 1.76,-3.38 4.36,-3.38 a 7.62,7.62 0 0 1 4.49,1.43 L 162,82.19 A 6.21,6.21 0 0 0 158.51,81 c -1.34,0 -2.24,0.61 -2.24,1.51 0,0.9 0.53,1.2 1.84,1.4 l 2,0.29 c 2.21,0.33 3.37,1.38 3.37,3.11 0,2 -2,3.5 -4.66,3.5 A 7.35,7.35 0 0 1 154,89.2 Z"/>
      <path id="Path_386" data-name="Path 386" d="m 170.65,90.85 a 5.74,5.74 0 0 1 -5.85,-5.63 v -0.16 a 5.59,5.59 0 0 1 5.46,-5.73 h 0.13 a 5.52,5.52 0 0 1 5.39,5.67 v 0.82 H 167 a 3.76,3.76 0 0 0 3.77,3.2 4.37,4.37 0 0 0 2.82,-1 l 1.4,1.38 a 6.67,6.67 0 0 1 -4.34,1.45 z M 167,84.15 h 6.62 a 3.33,3.33 0 0 0 -6.62,0 z"/>
      <path id="Path_387" data-name="Path 387" d="m 182.7,75.31 h 2.3 v 13.3 h 8.83 v 2 H 182.7 Z"/>
      <path id="Path_388" data-name="Path 388" d="M 195.65,76.34 A 1.33,1.33 0 0 1 197,75 v 0 a 1.36,1.36 0 0 1 0,2.71 1.34,1.34 0 0 1 -1.34,-1.35 z m 2.43,14.31 h -2.19 V 79.5 h 2.19 z"/>
      <path id="Path_389" data-name="Path 389" d="m 200.67,79.5 h 2.19 v 1.12 a 4.56,4.56 0 0 1 3.35,-1.34 4.16,4.16 0 0 1 4.36,4 v 7.41 h -2.19 V 84 A 2.6,2.6 0 0 0 206,81.19 h -0.4 a 3.18,3.18 0 0 0 -2.76,1.45 v 8 h -2.19 z"/>
      <path id="Path_390" data-name="Path 390" d="m 215.13,86.12 a 2.61,2.61 0 0 0 2.36,2.88 2.67,2.67 0 0 0 0.4,0 3.15,3.15 0 0 0 2.74,-1.46 v -8 h 2.19 v 11.11 h -2.19 v -1.12 a 4.58,4.58 0 0 1 -3.36,1.34 4.17,4.17 0 0 1 -4.34,-4 c 0,-0.14 0,-0.27 0,-0.41 v -7 h 2.19 z"/>
      <path id="Path_391" data-name="Path 391" d="m 228.49,84.93 -4.16,-5.43 h 2.56 l 2.87,3.83 2.87,-3.83 h 2.48 l -4.11,5.41 4.4,5.74 h -2.6 l -3.06,-4.12 -3.12,4.12 h -2.47 z"/>
    </g>
    <g id="Group_81" data-name="Group 81">
      <g id="Group_80" data-name="Group 80">
        <path id="Path_392" data-name="Path 392" class="cls-2" d="m 53.36,62.31 c 2.64,0 6.45,-0.55 6.45,-3.68 a 2.88,2.88 0 0 0 -0.06,-0.72 l -1.57,-6.82 c -0.37,-1.5 -0.68,-2.18 -3.32,-3.5 -2,-1 -6.49,-2.77 -7.81,-2.77 -1.32,0 -1.59,1.59 -3,1.59 -1.41,0 -2.45,-1.18 -3.77,-1.18 -1.32,0 -2.09,0.86 -2.73,2.63 0,0 -1.77,5 -2,5.72 a 1.43,1.43 0 0 0 0,0.41 c 0,1.94 7.64,8.31 17.89,8.31 m 6.86,-2.4 a 10.2,10.2 0 0 1 0.28,2.1 c 0,3 -3.31,4.59 -7.67,4.59 -9.86,0 -18.49,-5.77 -18.49,-9.59 a 3.9,3.9 0 0 1 0.32,-1.54 c -3.54,0.18 -8.13,0.82 -8.13,4.86 0,6.63 15.72,14.8 28.16,14.8 9.54,0 11.94,-4.31 11.94,-7.72 0,-2.68 -2.31,-5.72 -6.49,-7.54"/>
        <path id="Path_393" data-name="Path 393" d="m 60.22,59.9 a 9.67,9.67 0 0 1 0.36,2.1 c 0,2.95 -3.31,4.58 -7.67,4.58 -9.86,0 -18.48,-5.76 -18.48,-9.58 a 3.85,3.85 0 0 1 0.31,-1.54 l 0.78,-1.91 a 1.13,1.13 0 0 0 -0.05,0.41 c 0,1.94 7.65,8.31 17.89,8.31 2.64,0 6.45,-0.55 6.45,-3.68 a 2.92,2.92 0 0 0 -0.06,-0.72 z"/>
      </g>
      <path id="Path_394" data-name="Path 394" d="m 148.64,64.27 c 0,2.5 1.51,3.73 4.25,3.73 a 11.6,11.6 0 0 0 2.5,-0.36 v -2.9 a 5.21,5.21 0 0 1 -1.61,0.25 c -1.13,0 -1.55,-0.36 -1.55,-1.42 v -4.46 h 3.27 v -3 h -3.27 v -3.78 l -3.59,0.78 v 3 h -2.37 v 3 h 2.37 z m -11.15,0.07 c 0,-0.77 0.77,-1.15 1.95,-1.15 a 8.92,8.92 0 0 1 2.12,0.26 V 65 a 4.35,4.35 0 0 1 -2.24,0.55 c -1.15,0 -1.83,-0.44 -1.83,-1.17 m 1.1,3.7 a 5.47,5.47 0 0 0 3.23,-0.91 v 0.71 h 3.55 v -7.55 c 0,-2.86 -1.93,-4.43 -5.14,-4.43 a 13,13 0 0 0 -5.48,1.29 l 1.25,2.63 a 9.68,9.68 0 0 1 3.54,-0.93 c 1.49,0 2.24,0.58 2.24,1.75 v 0.58 a 10.38,10.38 0 0 0 -2.66,-0.34 c -3,0 -4.83,1.27 -4.83,3.53 0,2.06 1.64,3.63 4.26,3.63 m -19.48,-0.2 h 3.81 v -6.07 h 6.39 v 6.07 h 3.81 V 52.33 h -3.81 v 6 h -6.39 v -6 h -3.81 z M 104.59,62 a 3,3 0 0 1 3,-3 h 0.11 a 3.64,3.64 0 0 1 2.48,0.91 V 64 a 3.45,3.45 0 0 1 -2.48,0.93 3,3 0 0 1 -3.08,-2.88 V 62 m 5.61,5.87 h 3.54 V 51.56 l -3.59,0.77 v 4.41 a 6.11,6.11 0 0 0 -9.08,5.11 V 62 a 6,6 0 0 0 5.9,6 h 0.1 a 5.27,5.27 0 0 0 3.15,-1 z m -16.26,-9 a 2.58,2.58 0 0 1 2.45,1.86 h -4.9 a 2.45,2.45 0 0 1 2.44,-1.86 M 87.88,62 a 6.17,6.17 0 0 0 6.23,6.08 h 0.15 a 7,7 0 0 0 4.9,-1.77 l -2.37,-2.1 a 3.13,3.13 0 0 1 -2.34,0.89 3,3 0 0 1 -2.88,-1.86 h 8.35 v -0.89 c 0,-3.72 -2.5,-6.4 -5.92,-6.4 a 6,6 0 0 0 -6.11,5.92 V 62 m -6.18,-6.4 a 1.78,1.78 0 0 1 2,1.57 c 0,0.06 0,0.12 0,0.18 a 1.78,1.78 0 0 1 -1.8,1.76 H 77.94 V 55.6 Z m -7.58,12.25 h 3.81 V 62.2 h 2.9 l 2.92,5.65 H 88 l -3.41,-6.2 a 4.69,4.69 0 0 0 2.92,-4.36 c 0,-2.8 -2.19,-4.94 -5.47,-4.94 h -7.91 z"/>
    </g>
  </g>
</svg>