<?xml version="1.0" encoding="UTF-8" standalone="no"?>
<svg
   width="200mm"
   height="200mm"
   viewBox="0 0 200 200"
   version="1.1"
   id="svg8"
   inkscape:version="1.1.2 (0a00cf5339, 2022-02-04)"
   sodipodi:docname="redhat-badge.svg"
   inkscape:export-filename="/home/yutyo/Resimler/pekercoin-token.png"
   inkscape:export-xdpi="254"
   inkscape:export-ydpi="254"
   xmlns:inkscape="http://www.inkscape.org/namespaces/inkscape"
   xmlns:sodipodi="http://sodipodi.sourceforge.net/DTD/sodipodi-0.dtd"
   xmlns="http://www.w3.org/2000/svg"
   xmlns:svg="http://www.w3.org/2000/svg"
   xmlns:rdf="http://www.w3.org/1999/02/22-rdf-syntax-ns#"
   xmlns:cc="http://creativecommons.org/ns#"
   xmlns:dc="http://purl.org/dc/elements/1.1/">
  <defs
     id="defs2">
    <rect
       x="-492.60641"
       y="714.36974"
       width="791.40961"
       height="438.99365"
       id="rect2567" />
    <rect
       x="176.31593"
       y="-42.444874"
       width="274.70474"
       height="202.6032"
       id="rect15645" />
  </defs>
  <sodipodi:namedview
     id="base"
     pagecolor="#ffffff"
     bordercolor="#666666"
     borderopacity="1.0"
     inkscape:pageopacity="0.0"
     inkscape:pageshadow="2"
     inkscape:zoom="0.31677843"
     inkscape:cx="397.75435"
     inkscape:cy="683.44299"
     inkscape:document-units="mm"
     inkscape:current-layer="g15521"
     inkscape:document-rotation="0"
     showgrid="false"
     inkscape:window-width="1366"
     inkscape:window-height="692"
     inkscape:window-x="0"
     inkscape:window-y="0"
     inkscape:window-maximized="1"
     inkscape:pagecheckerboard="0"
     showguides="false" />
  <metadata
     id="metadata5">
    <rdf:RDF>
      <cc:Work
         rdf:about="">
        <dc:format>image/svg+xml</dc:format>
        <dc:type
           rdf:resource="http://purl.org/dc/dcmitype/StillImage" />
      </cc:Work>
    </rdf:RDF>
  </metadata>
  <g
     inkscape:label="Katman 1"
     inkscape:groupmode="layer"
     id="layer1">
    <g
       id="g15521">
      <circle
         style="fill:#000000;fill-opacity:1;stroke:none;stroke-width:18.3486;stroke-linecap:square;stroke-linejoin:round;stroke-miterlimit:4;stroke-dasharray:none;stroke-opacity:1;paint-order:stroke fill markers"
         id="path871-5"
         cx="100"
         cy="100"
         r="99.753716" />
      <circle
         style="fill:#ffffff;fill-opacity:1;stroke:none;stroke-width:16.7765;stroke-linecap:square;stroke-linejoin:round;stroke-miterlimit:4;stroke-dasharray:none;stroke-opacity:1;paint-order:stroke fill markers"
         id="path871"
         cx="100"
         cy="100"
         r="91.206635" />
      <g
         id="g9254"
         transform="translate(-4.9296561,-1.4878214)">
        <path
           style="fill:#000000;fill-opacity:1;stroke-width:1.0062"
           d="m 53.283732,180.89652 c -7.661564,-4.17422 -15.91975,-9.82144 -17.963567,-12.28408 -0.864571,-1.04175 0.277878,-4.05796 4.93931,-13.04035 7.300034,-14.06686 8.432635,-18.87241 10.604598,-44.99457 0.897273,-10.791501 1.74468,-19.745483 1.883121,-19.897743 0.138442,-0.152261 2.240157,0.570212 4.670475,1.605493 2.430321,1.035286 8.193919,3.134596 12.807994,4.665148 7.634566,2.532491 8.326172,2.976412 7.688264,4.934812 -0.385526,1.1836 -1.393129,5.32152 -2.239108,9.1954 -2.584321,11.83397 0.884521,19.02519 7.475662,15.49773 1.835116,-0.98214 2.2943,-1.83924 1.80867,-3.37603 -0.357988,-1.13284 -0.893284,-4.40867 -1.189546,-7.27964 -0.490173,-4.74996 -0.288215,-5.45205 2.243162,-7.79805 3.908705,-3.62247 10.563351,-3.63885 13.399706,-0.033 2.508677,3.18924 3.596587,9.29584 2.275237,12.77122 -1.21344,3.19158 -7.296887,6.82806 -16.340194,9.7676 -3.671218,1.19336 -7.479975,3.05929 -8.463912,4.14651 -1.958181,2.16377 -2.168203,7.02055 -0.493999,11.42404 1.530517,4.02557 1.271323,11.32622 -0.525477,14.80085 -0.862631,1.66814 -3.592154,6.05048 -6.065609,9.73854 -2.473455,3.68806 -5.008872,8.41343 -5.634257,10.50076 -0.625386,2.08735 -1.631382,3.78882 -2.235547,3.78105 -0.604163,-0.008 -4.494407,-1.86436 -8.644983,-4.1257 z m 5.90376,-21.77893 c 2.669516,-2.53946 4.211034,-5.03471 4.691051,-7.59343 0.917159,-4.88886 0.230712,-5.47438 -3.24999,-2.77216 -1.549306,1.20279 -4.401685,3.21482 -6.338622,4.47118 -3.640511,2.36135 -4.319517,5.38757 -1.870837,8.33805 1.645325,1.9825 2.403193,1.70888 6.768398,-2.44364 z m 29.859819,-44.76681 c 0.534097,-1.81419 1.972395,-3.7131 3.230467,-4.26503 2.87956,-1.2633 2.29916,-3.11254 -0.869345,-2.76985 -3.173492,0.34323 -5.926287,3.7796 -5.926287,7.39789 0,3.96534 2.361704,3.72486 3.565165,-0.36301 z m 62.002899,58.81737 c -1.73331,-3.76046 -3.44172,-8.28837 -3.79644,-10.06201 -0.35471,-1.77363 -0.99423,-3.22479 -1.42115,-3.22479 -0.97505,0 -7.02187,6.82673 -7.02187,7.92758 0,0.44776 -2.23842,3.14874 -4.97426,6.00216 -4.69458,4.89637 -5.25813,5.18808 -10.02284,5.18808 -4.49796,0 -5.66211,-0.49974 -10.67386,-4.58185 -6.65276,-5.41874 -18.203093,-12.98373 -21.285918,-13.94139 -2.713582,-0.84295 -7.377931,-4.44564 -7.377931,-5.6986 0,-1.85085 4.207676,-0.86637 11.072217,2.59054 11.681742,5.88284 21.897382,9.5569 26.572772,9.5569 3.2887,0 5.59841,-0.81928 9.21944,-3.27018 7.55696,-5.11487 7.08683,-5.78564 -4.05516,-5.78564 -9.38806,0 -10.11342,-0.17079 -23.98112,-5.64643 -18.781171,-7.4157 -20.840546,-8.41022 -20.840546,-10.06431 0,-1.95515 1.630775,-1.73706 4.859207,0.64983 3.948946,2.91958 24.147809,9.82874 32.541629,11.13108 11.47113,1.7798 14.45492,0.88594 22.33637,-6.69137 5.55431,-5.33999 6.67586,-6.93929 6.15108,-8.77143 -0.62728,-2.19011 -5.76656,-7.51893 -14.51145,-15.04671 -4.1307,-3.55578 -4.32728,-3.96863 -3.79158,-7.96248 0.62658,-4.67154 3.51705,-9.23473 6.18114,-9.75816 3.2615,-0.64084 6.67466,0.89434 7.64135,3.43691 1.30616,3.43543 -0.37534,10.53757 -2.99761,12.66113 -2.47034,2.00054 -2.63957,4.14475 -0.46928,5.94593 4.02522,3.34064 7.27204,-3.6309 7.38563,-15.85828 0.0421,-4.53297 0.41614,-8.44164 0.83119,-8.68593 0.41506,-0.24429 2.22621,-0.75977 4.0248,-1.14553 l 3.27014,-0.70137 v 9.72514 c 0,5.34884 -0.49166,18.56207 -1.09259,29.36273 l -1.09259,19.63758 2.91193,4.6765 c 1.60157,2.57205 3.27899,4.87502 4.25708,6.36357 2.71945,3.8788 1.82027,2.68 -2.30245,5.28254 -2.24445,1.41687 -4.24917,2.5761 -4.45497,2.5761 -0.20578,0 -1.35906,-2.05737 -3.09236,-5.81784 z m -16.25805,-55.79876 c 0.004,-0.69179 0.69902,-2.58636 1.54581,-4.21019 1.87447,-3.59457 1.22025,-6.47731 -1.04359,-4.59849 -1.66124,1.37871 -3.73503,7.90962 -2.92681,9.21734 0.79612,1.28814 2.41757,1.01484 2.42459,-0.40866 z m -7.14591,7.682 c -1.16705,-1.40622 -1.09316,-1.57581 0.54806,-1.25776 1.04334,0.20219 2.08545,0.93359 2.31577,1.62536 0.59763,1.79495 -1.2678,1.55549 -2.86383,-0.3676 z m -19.02151,-0.32766 c 0,-1.40216 1.84974,-2.29108 3.12603,-1.5023 0.77631,0.47979 0.70014,0.95027 -0.25154,1.55328 -1.79617,1.1381 -2.87449,1.11898 -2.87449,-0.051 z m 1.00621,-11.83001 v -7.3472 h 4.40214 c 2.42115,0 5.81707,0.283 7.54648,0.62888 3.05642,0.61129 3.14439,0.78104 3.14439,6.06878 0,6.04163 0.40237,5.71842 -8.80425,7.07209 l -6.28876,0.92464 z"
           id="path1021"
           sodipodi:nodetypes="ssssssssssssscssssssscsssssssssssssssssssssssscsssssssssssssssscsscsccsscssscsssssssssccsssscc" />
        <path
           style="fill:#000000;stroke:none;stroke-width:0.270298px;stroke-linecap:butt;stroke-linejoin:miter;stroke-opacity:1"
           d="m 55.416446,75.658276 5.787156,-16.010935 2.256601,-6.766841 5.481513,-22.89993 21.879868,-4.708774 19.210606,-5.945013 12.80268,1.514446 8.33867,14.335838 15.10742,21.127276 5.3008,2.869468 9.29061,19.260917 c 0,0 -40.62133,16.838266 -43.13287,17.127964 -2.51154,0.2897 -42.721488,0.494084 -46.146172,-2.362542 C 68.168642,90.343522 55.416446,75.658276 55.416446,75.658276 Z"
           id="path1541"
           sodipodi:nodetypes="cccccccccccssc" />
        <path
           d="m 93.245573,44.208648 c -9.871075,2.025846 -10.770424,3.237727 -12.375066,5.463644 -2.261422,3.15628 -6.577978,-2.82935 -6.577978,-2.82935 -2.144067,-0.164714 -5.103156,-3.189256 -4.151408,-6.494824 0.938033,-3.274043 3.537326,-2.675581 4.435345,-1.812372 1.095072,1.051404 3.36371,2.709892 5.97298,2.296343 2.609246,-0.413559 5.553112,-1.358488 9.767202,-1.911146 4.266718,-0.559574 7.339177,0.65461 7.677092,2.007437 0.298675,1.143955 -0.04812,2.307157 -4.748167,3.280268 m 8.314567,-17.838407 -0.0468,0.0059 c -0.15198,0.01995 -0.29003,-0.0808 -0.30842,-0.221153 -0.0128,-0.105205 0.0384,-0.207159 0.12638,-0.260318 1.80126,-1.270733 4.57543,-2.4669 7.82897,-3.226523 0.97395,-0.234764 1.93654,-0.420452 2.86585,-0.542316 l 0.4968,-0.06517 c 5.55189,-0.597296 10.26462,1.020072 10.53912,3.611893 0.26866,2.592604 -3.99964,5.17975 -9.55585,5.78952 -1.7888,0.187023 -3.50583,0.150617 -5.00468,-0.08082 -0.1865,-0.01714 -0.32259,-0.147929 -0.3456,-0.323272 -0.023,-0.169497 0.0755,-0.330944 0.25641,-0.40224 3.33834,-1.24638 5.49869,-2.861461 5.17331,-4.073253 -0.43595,-1.601575 -5.05879,-1.898988 -10.34211,-0.65912 -0.58269,0.135854 -1.13967,0.286212 -1.68341,0.446709 m 50.02167,32.803744 c -0.47774,2.975869 -1.207,6.799221 -6.24425,10.277926 -0.73615,0.50678 -1.11503,-0.115361 -0.83974,-0.781666 1.59036,-3.740092 1.83344,-4.651884 2.25101,-6.091905 0.56119,-2.112843 0.63209,-5.017498 -1.79924,-10.727215 -4.77463,-11.246619 -13.60199,-25.968886 -19.18049,-30.379981 -5.39267,-4.263067 -14.17709,-4.514098 -21.70019,-1.494169 -2.76815,1.106201 -7.991582,4.752024 -18.690243,3.77699 -18.515625,-1.691824 -20.000401,7.658701 -20.514729,11.715467 -0.526045,4.058303 -1.542444,15.529339 -1.542444,15.529339 -0.227703,4.655317 -0.274241,12.687617 28.356357,14.348959 13.334739,0.76604 14.430899,4.046795 15.331929,6.384053 1.60254,4.195309 3.57578,6.45734 5.59694,7.45268 2.02113,0.995333 0.29739,2.267768 -1.73898,2.742925 C 105.40854,83.23176 84.152192,80.044436 71.127867,74.754905 60.420969,69.999723 59.542931,64.573855 61.203602,59.647341 46.016914,59.992203 35.173675,64.487995 34.069497,71.84449 c -1.90665,12.616308 31.064411,29.4219 66.875283,35.33185 37.57837,6.19541 73.74942,-6.31892 74.90369,-29.567852 0.52328,-10.562125 -9.16904,-17.055596 -24.26671,-18.434677"
           style="fill:#ee0000;fill-opacity:1;stroke-width:5.89485"
           id="path8-3" />
      </g>
    </g>
  </g>
</svg>
